<svg width="817" height="817" xmlns="http://www.w3.org/2000/svg" xmlns:xlink="http://www.w3.org/1999/xlink" xml:space="preserve" overflow="hidden"><g transform="translate(368 -49)"><g><g><g><g><path d="M1.64345 52.363C59.4502 46.8105 118.456 53.5736 173.364 72.571 258.782 101.8 333.596 160.527 382.661 236.26 409.271 277.06 428.443 322.702 438.884 370.289 450.56 423.288 451.503 478.615 441.632 531.987 432.284 583.112 412.868 632.363 384.919 676.19 337.367 751.213 264.707 810.032 181.233 840.507 85.7112 875.906-23.1741 873.427-116.938 833.546-196.862 800.01-265.343 740.154-309.531 665.609-347.444 602.075-367.466 527.994-366.418 454.007-366.22 409.89-358.433 365.842-343.952 324.181-324.803 269.168-293.572 218.438-253.272 176.393-208.538 129.598-152.57 93.5588-91.3177 72.536-61.2619 62.176-29.9838 55.4128 1.64345 52.363M14.3433 61.4892C-63.0312 66.4597-138.613 95.0488-200.04 142.333-247.266 178.523-286.343 225.329-313.267 278.399-350.75 351.676-364.195 436.814-351.623 518.112-342.194 580.621-317.283 640.663-279.987 691.683-228.28 762.807-152.5 816.167-67.8155 840.088-14.3972 855.396 42.2688 859.097 97.2703 851.263 146.44 844.302 194.224 827.877 237.329 803.234 312.177 760.677 372.522 693.197 406.314 613.995 427.931 563.638 438.884 508.729 438.198 453.938 437.79 398.04 425.23 342.258 401.705 291.552 365.829 213.654 303.959 148.083 228.331 107.655 163.249 72.4429 88.1325 56.507 14.3433 61.4892Z" fill="#E6E6E7" fill-rule="nonzero" fill-opacity="1"/><path d="M9.40765 66.8671C80.3566 61.0585 152.854 74.9573 216.411 107.073 296.533 147.024 362.045 215.295 398.725 296.953 420.97 346.123 432.785 399.96 433.227 453.914 433.902 510.056 422.285 566.303 399.33 617.545 363.861 697.248 300.956 764.309 223.733 804.876 176.135 830.101 123.229 845.198 69.5076 849.028 10.4553 853.405-49.5865 844.162-104.553 822.104-183.674 790.581-251.771 732.39-295.469 659.299-327.574 606.091-346.548 545.071-350.401 483.05-353.52 434.789-347.63 385.934-333.056 339.814-315.514 284.219-285.284 232.698-245.426 190.163-206.687 148.653-158.879 115.629-106.264 94.2805-69.4219 79.2643-30.2516 69.9984 9.40765 66.8671M7.62665 70.8947C-48.6436 75.7139-103.796 93.0583-152.675 121.38-200.564 149.084-242.458 187.079-274.667 232.046-306.853 276.897-329.401 328.674-339.994 382.861-347.793 422.694-349.469 463.75-344.522 504.05-337.456 564.732-315.479 623.563-281.291 674.176-230.259 750.445-151.418 807.669-62.8799 832.033-11.6267 846.339 42.5831 849.75 95.2564 842.358 145.543 835.327 194.375 818.192 238.062 792.327 313.539 747.942 373.244 677.366 404.184 595.428 423.146 545.653 431.563 491.921 428.897 438.735 426.278 384.874 412.274 331.572 387.887 283.474 348.833 205.75 282.936 141.902 203.967 105.444 143.041 76.9944 74.5945 65.0977 7.62665 70.8947Z" fill="#E6E6E7" fill-rule="nonzero" fill-opacity="1"/><path d="M143.728 101.102C144.717 98.7621 147.685 98.2965 149.909 98.8902 152.819 100.497 155.368 102.743 157.638 105.164 159.896 107.551 159.617 111.346 157.917 113.941 155.124 117.585 149.513 117.841 147.301 122.032 145.031 126.979 145.404 132.729 142.855 137.572 141.434 141.18 137.046 141.203 134.136 143.008 136.86 145.289 139.805 149.491 143.856 148.351 150.63 144.661 153.75 135.709 161.805 134.114 166.508 132.636 171.339 135.337 176.018 134.114 173.853 127.526 163.726 132.077 161.107 125.756 159.663 120.122 163.26 112.23 169.616 112.021 182.944 114.081 195.4 119.773 207.029 126.408 209.229 127.724 212.22 129.668 211.196 132.717 209.729 136.023 208.204 139.318 206.4 142.437 202.698 145.01 198.729 142.228 195.4 140.493 192.746 139.236 188.602 137.455 186.786 140.843 191.663 143.59 198.333 144.905 200.231 150.993 197.914 160.236 196.971 169.781 194.201 178.907 193.2 182.679 190.732 185.728 187.938 188.336 190.103 192.864 193.293 197.124 193.782 202.258 193.572 204.959 189.94 204.295 188.381 203.236 181.687 199.22 177.555 192.329 171.886 187.183 159.838 178.802 146.102 172.516 131.458 170.526 123.101 169.048 114.498 169.071 106.28 166.766 104.01 158.955 111.053 152.902 111.285 145.394 111.483 143.904 111.693 142.426 111.902 140.947 113.846 139.516 115.674 137.269 118.363 137.63 123.624 137.746 128.921 136.303 133.496 133.719 135.335 132.869 137.407 129.982 134.916 128.62 127.233 130.04 118.794 131.379 111.379 128.201 111.786 126.443 111.553 124.173 113.264 123.044 120.726 120.507 128.863 126.385 136.056 122.171 130.376 117.503 122.786 117.41 115.849 116.619 114.405 113.895 114.3 110.857 115.732 108.086 116.396 107.842 117.711 107.341 118.363 107.097 127.291 109.413 136.289 113.499 145.695 111.869 146.859 108.051 143.832 104.804 143.728 101.102M173.981 125.559C181.163 126.536 188.485 129.121 193.386 134.731 195.074 135.046 197.437 135.5 198.38 133.567 198.671 128.643 192.944 126.909 189.242 125.5 183.235 123.731 177.625 120.728 171.49 119.389 170.745 121.543 171.257 125.279 173.981 125.559M164.25 142.926C166.368 144.23 168.801 144.626 171.257 144.544 170.908 143.764 170.21 142.216 169.861 141.436 167.719 140.715 165.542 140.843 164.25 142.926M117.001 161.749C122.158 160.177 125.522 155.172 126.732 150.132 127.512 147.548 124.963 145.755 123.077 144.626 117.699 148.234 115.523 155.614 117.001 161.749M179.394 147.571C181.501 149.573 183.678 151.517 186.099 153.158 188.02 149.154 182.362 142.67 179.394 147.571M156.858 151.179C158.837 154.136 162.259 155.556 165.542 156.546 166.089 155.219 166.496 153.857 166.776 152.448 165.507 150.085 162.69 149.026 160.222 148.467 158.29 147.978 156.509 149.061 156.858 151.179M130.55 159.502C131.878 162.075 134.927 164.124 137.803 162.669 140.166 161.667 139.956 158.804 140.189 156.685 138.827 155.812 137.5 154.834 135.975 154.276 133.088 154.485 131.831 157.372 130.55 159.502M177.695 156.755C178.521 161.714 183.34 166.114 188.427 165.881 189.44 160.177 182.176 157.686 177.695 156.755M146.801 163.751C148.675 166.941 151.294 170.933 155.508 170.666 159.221 170.747 163.877 166.999 161.549 163.053 158.499 157.5 149.478 158.117 146.801 163.751M169.127 168.396C164.273 171.55 167.451 178.581 172.177 180.001 175.297 181.049 180.593 183.202 182.223 179.058 184.237 175.974 182.595 171.981 179.65 170.2 176.589 168.349 172.491 165.683 169.127 168.396Z" fill="#E6E6E7" fill-rule="nonzero" fill-opacity="1"/><path d="M-93.3082 109.32C-94.1813 107.667-92.0976 106.992-91.0151 106.538-88.2795 105.7-85.3927 106.259-82.7154 107.073-82.4476 110.158-82.599 114.372-79.2581 115.885-74.1596 117.887-68.8981 114.977-63.8112 114.291-54.1845 112.929-44.8139 107.446-34.9194 109.821-34.5935 110.601-33.9533 112.172-33.6273 112.952-34.7681 117.329-38.9354 119.971-43.3821 119.61-52.9855 119.075-62.4492 121.578-71.1098 125.57-72.8558 126.176-73.8453 127.77-74.9511 129.121-70.4579 132.997-64.8705 129.214-59.7486 129.598-43.8011 129.249-26.515 134.464-16.2713 147.326-14.0596 150.236-11.3357 153.857-12.6395 157.733-14.2808 160.771-18.4132 160.748-21.0788 159.165-28.7616 155.067-33.8718 147.548-41.2868 143.078-49.0743 138.584-58.5496 137.804-67.28 139.271-80.4105 142.135-90.6193 152.285-97.8829 163.088-103.342 171.015-103.855 180.781-106.078 189.826-107.184 193.143-108.848 198.335-113.295 197.683-117.94 196.868-119.767 191.351-119.197 187.183-117.753 177.79-113.26 169.129-107.975 161.342-103.133 155.603-98.011 150.108-93.0638 144.463-90.1769 141.064-86.126 138.771-83.6699 135.022-82.6921 131.728-86.6149 131.728-88.8033 132.124-93.0405 132.904-96.4163 135.791-100.293 137.49-107.626 140.796-113.47 146.837-121.199 149.329-123.166 150.027-126.158 150.004-127.066 147.734-129.114 144.346-127.136 140.156-124.144 138.084-114.552 131.076-101.876 130.855-91.8415 124.767-86.743 120.053-93.0289 114.593-93.3082 109.32Z" fill="#E6E6E7" fill-rule="nonzero" fill-opacity="1"/><path d="M33.2591 175.089C38.2179 174.821 43.2001 174.891 48.1822 175.007 49.8119 183.191 50.2309 191.549 51.7326 199.744 55.5157 200.081 59.2989 200.489 63.0937 200.442 64.3043 199.639 64.2927 198.044 64.77 196.822 66.5044 190.07 68.3785 183.354 70.1944 176.614 75.2464 177.138 80.3449 177.452 85.3271 178.581 85.4086 186.764 85.2689 194.948 85.4086 203.143 89.1452 204.237 92.9866 204.97 96.8046 205.773 100.495 198.289 103.451 190.454 106.781 182.795 111.728 183.901 116.652 185.181 121.471 186.764 120.377 194.924 119.073 203.049 118.049 211.209 121.913 212.56 125.685 214.341 129.724 215.074 134.252 208.218 137.826 200.756 142.179 193.772 146.917 195.448 151.62 197.241 156.101 199.511 154.088 207.589 151.468 215.54 149.85 223.723 153.331 225.492 156.87 227.192 160.373 228.938 165.74 222.524 170.605 215.714 175.751 209.114 180.302 211.361 184.574 214.12 188.986 216.611 186.041 224.41 182.165 231.848 179.545 239.764 182.49 242.418 185.983 244.362 189.254 246.597 195.353 240.776 201.29 234.793 207.296 228.88 211.371 231.836 215.375 234.898 219.193 238.192 215.13 245.549 210.463 252.603 206.889 260.216 210.125 262.393 212.511 266.257 216.26 267.34 222.93 262.707 229.122 257.399 235.734 252.673 239.436 256.049 243.068 259.518 246.374 263.289 241.589 270.029 236.165 276.303 231.346 283.031 233.674 286.07 236.107 289.061 238.912 291.669 239.18 291.645 239.727 291.587 239.995 291.552 247.049 287.827 253.905 283.695 260.854 279.772 264.009 283.695 267.28 287.548 270.074 291.739 264.347 297.815 258.084 303.379 252.485 309.572 254.673 312.831 256.641 316.265 259.19 319.268 267.175 316.894 274.532 312.738 282.401 309.979 284.974 314.333 287.511 318.721 289.828 323.226 283.251 328.313 276.348 333.004 270.085 338.487 271.75 342.072 273.508 345.622 275.393 349.103 283.484 347.194 291.422 344.715 299.501 342.794 301.561 347.38 303.645 351.978 305.286 356.739 298.372 361.302 290.561 364.468 283.914 369.404 284.741 373.222 286.429 376.796 287.639 380.509 296.009 380.16 304.204 378.134 312.562 377.552 313.772 382.43 315.39 387.226 316.24 392.196 308.581 395.327 301.003 398.657 293.331 401.73 293.913 405.676 294.728 409.587 295.741 413.463 304.041 413.557 312.34 413.452 320.652 413.51 321.408 418.504 322.049 423.509 322.607 428.526 314.61 430.854 306.509 432.798 298.523 435.15 298.674 439.154 298.977 443.147 299.303 447.139 307.498 448.629 315.844 449.153 324.039 450.62 324.423 455.614 324.26 460.631 324.074 465.636 315.798 466.649 307.521 467.58 299.303 468.907 298.977 472.9 298.663 476.893 298.511 480.885 306.497 483.272 314.587 485.25 322.607 487.509 322.037 492.514 321.42 497.52 320.64 502.502 312.305 502.525 303.971 502.455 295.636 502.537 294.787 506.448 294.065 510.394 293.331 514.328 301.003 517.436 308.604 520.696 316.228 523.909 315.332 528.844 313.749 533.617 312.596 538.494 304.239 537.947 296.032 535.957 287.663 535.479 286.254 539.228 284.95 543.034 283.903 546.91 291.027 551.043 298.255 554.989 305.286 559.284 303.575 563.999 301.666 568.643 299.594 573.206 291.446 571.448 283.519 568.829 275.405 566.979 273.461 570.412 271.727 573.974 270.074 577.56 276.313 583.112 283.321 587.71 289.851 592.89 287.616 597.407 284.939 601.679 282.424 606.044 274.579 603.134 267.07 599.374 259.167 596.627 256.943 599.84 254.51 602.948 252.718 606.451 257.688 612.947 264.416 617.848 269.748 624.029 267.815 628.685 263.904 632.317 260.808 636.263 253.637 632.27 246.769 627.719 239.401 624.11 236.258 626.648 233.814 629.896 231.311 633.027 236.2 639.755 241.613 646.087 246.432 652.874 243.021 656.517 239.482 660.056 235.746 663.374 229.064 658.682 222.999 653.165 216.225 648.613 212.558 649.94 210.067 653.456 207.099 655.912 210.23 663.641 215.34 670.556 219.24 677.971 215.387 681.172 211.429 684.268 207.343 687.178 201.302 681.323 195.388 675.328 189.323 669.497 186.029 671.615 182.758 673.78 179.569 676.05 182.351 684.001 186.018 691.602 188.974 699.494 184.528 701.822 180.384 704.697 175.82 706.793 170.71 700.216 165.717 693.557 160.432 687.132 156.916 688.901 153.343 690.543 149.85 692.359 151.55 700.46 154.123 708.353 156.09 716.396 151.562 718.515 147.033 720.657 142.284 722.251 137.651 715.372 134.334 707.677 129.584 700.903 125.836 701.799 122.309 703.429 118.596 704.43 118.479 712.764 120.598 720.936 121.471 729.201 116.652 730.854 111.716 732.111 106.746 733.159 103.579 725.732 100.821 718.119 97.4099 710.809 93.394 710.297 89.378 712.031 85.4202 712.718 85.2456 720.971 85.4551 729.236 85.2922 737.5 80.3333 738.443 75.2697 738.734 70.2643 739.398 67.843 731.482 66.5975 723.194 63.5477 715.488 59.6248 715.721 55.702 715.965 51.7675 716.082 50.2077 724.347 49.777 732.774 48.1706 741.039 43.2117 741.074 38.2412 741.167 33.2824 740.934 32.13 732.716 31.2686 724.475 29.9997 716.28 26.007 715.768 21.9911 715.651 17.9751 715.546 15.6121 723.439 13.8427 731.494 11.5845 739.421 6.68377 738.746 1.74821 738.42-3.1059 737.582-3.33869 729.271-2.86143 720.948-3.40853 712.648-7.35469 711.798-11.3008 710.96-15.3051 710.413-18.5063 717.956-21.7074 725.511-24.8271 733.1-29.8209 732.099-34.7448 730.819-39.564 729.177-38.6327 720.982-36.9216 712.869-36.4676 704.616-40.2275 703.324-43.9874 702.008-47.7706 700.81-51.9961 707.934-55.9305 715.232-60.3656 722.228-65.0683 720.622-69.5732 718.515-74.0548 716.384-72.0177 708.387-69.7595 700.449-67.9203 692.405-71.3891 690.519-74.9861 688.878-78.5015 687.097-83.7863 693.499-88.5822 700.297-93.6342 706.898-98.2089 704.744-102.388 701.869-106.858 699.517-103.959 691.625-100.421 684.001-97.4057 676.167-100.595 673.815-103.855 671.58-107.23 669.52-113.365 675.224-119.15 681.277-125.145 687.12-129.219 684.315-133.084 681.242-136.995 678.215-133.177 670.626-128.3 663.595-124.842 655.831-128.055 653.63-130.476 649.743-134.236 648.73-140.883 653.386-147.052 658.694-153.676 663.362-157.366 660.021-160.986 656.576-164.257 652.816-159.543 646.006-154.095 639.743-149.253 633.027-151.546 629.884-154.165 627.02-156.737 624.122-164.443 627.463-171.393 632.305-178.796 636.263-181.997 632.328-185.338 628.487-188.05 624.192-182.102 618.243-175.863 612.574-170.31 606.254-172.592 603.041-174.815 599.781-177.132 596.604-184.954 599.397-192.404 603.169-200.203 606.032-202.857 601.725-205.558 597.442-207.734 592.867-201.193 587.71-194.231 583.066-187.969 577.56-189.633 573.963-191.368 570.401-193.37 566.979-201.46 568.876-209.376 571.402-217.478 573.229-219.515 568.666-221.377 564.033-223.251 559.401-216.151 555.105-208.922 551.019-201.74 546.875-202.799 543.034-204.254 539.321-205.511 535.549-213.799 535.968-221.948 537.714-230.189 538.646-231.726 533.861-233.018 528.995-234.182 524.118-226.627 520.661-218.921 517.541-211.262 514.317-211.844 510.359-212.67 506.436-213.566 502.548-221.854 502.443-230.154 502.537-238.442 502.49-239.432 497.508-239.897 492.444-240.351 487.404-232.354 485.157-224.264 483.225-216.302 480.85-216.558 476.858-216.872 472.877-217.315 468.907-225.463 467.615-233.658 466.695-241.841 465.659-242.214 460.654-242.144 455.614-241.923 450.608-233.751 449.142-225.451 448.583-217.268 447.139-216.872 443.158-216.558 439.177-216.302 435.196-224.276 432.857-232.366 430.924-240.351 428.643-239.932 423.579-239.385 418.515-238.384 413.533-230.119 413.428-221.854 413.568-213.59 413.463-212.693 409.587-211.844 405.699-211.273 401.765-218.84 398.401-226.72 395.665-234.054 391.812-233.216 386.923-231.609 382.174-230.166 377.424-221.889 378.297-213.718 380.23-205.383 380.428-204.114 376.668-202.717 372.943-201.751 369.09-208.817 364.771-216.186 360.988-223.24 356.658-221.424 351.99-219.491 347.357-217.431 342.782-209.376 344.738-201.437 347.147-193.382 349.103-191.414 345.634-189.645 342.072-187.992 338.452-194.301 333.016-201.193 328.325-207.758 323.203-205.453 318.686-202.834 314.344-200.238 309.991-192.427 312.889-184.977 316.673-177.12 319.443-174.792 316.23-172.545 312.959-170.299 309.7-175.851 303.356-182.312 297.908-188.05 291.75-185.233 287.56-181.927 283.73-178.785 279.784-171.661 283.742-164.653 287.967-157.401 291.704-154.153 289.853-151.499 286.279-149.497 283.043-153.885 276.082-159.717 270.122-164.246 263.243-160.905 259.518-157.401 255.967-153.618 252.685-147.052 257.422-140.871 262.672-134.248 267.317-130.465 266.281-128.009 262.323-124.668 260.181-128.125 252.51-132.979 245.561-136.902 238.122-133.189 234.782-129.149 231.825-125.11 228.88-119.139 234.642-113.539 240.788-107.382 246.341-103.68 244.885-100.618 242.138-97.3708 239.88-100.409 232.046-104.087 224.468-106.741 216.494-102.376 214.038-98.139 211.372-93.6807 209.091-88.5938 215.691-83.8794 222.594-78.4549 228.938-74.9395 227.192-71.3775 225.539-67.8854 223.746-69.6664 215.598-72.0061 207.589-74.0548 199.511-69.6198 197.287-65.0218 195.413-60.3423 193.772-55.884 200.733-52.2405 208.206-47.6658 215.086-43.8477 214.283-40.2741 212.63-36.5374 211.547-36.747 203.224-38.5047 195.018-39.401 186.753-34.6051 185.1-29.6695 183.924-24.7456 182.783-21.5445 190.245-18.646 197.846-15.3284 205.261-11.3706 205.773-7.30811 203.911-3.37361 203.212-2.89635 194.971-3.31543 186.718-3.11752 178.476 1.74821 177.475 6.71869 177.114 11.6659 176.66 13.8543 184.588 15.7052 192.585 17.9867 200.489 22.0027 200.407 26.0187 200.198 30.0114 199.616 31.222 191.456 32.1532 183.261 33.2591 175.089M27.5203 226.715C-21.9402 229.59-70.2018 248.901-107.964 280.971-141.942 309.549-167.528 347.997-180.484 390.485-189.866 421.146-192.858 453.775-188.947 485.611-184.733 521.557-171.707 556.397-151.546 586.441-125.902 624.89-88.5473 655.412-45.7102 672.756 2.77258 692.615 58.0767 695.059 108.142 679.682 148.139 667.587 184.586 644.283 212.604 613.319 244.162 578.619 264.952 534.164 270.76 487.579 277.454 437.187 266.64 384.711 240.716 340.99 217.598 301.61 182.619 269.331 141.504 249.46 106.28 232.279 66.6208 224.538 27.5203 226.715Z" fill="#E6E6E7" fill-rule="nonzero" fill-opacity="1"/><path d="M-271.059 243.791C-269.592 240.741-266.729 238.821-263.493 238.076-257.614 240.299-252.015 243.896-248.22 248.948-245.496 255.327-245.38 263.289-249.117 269.296-250.595 271.787-253.563 272.136-256.206 271.763-257.73 266.758-251.456 262.858-254.739 258.156-257.859 258.994-259.349 263.662-262.922 262.404-266.275 258.819-261.851 254-263.295 249.786-264.854 250.554-266.798 251.02-267.648 252.708-269.755 256.549-273.643 258.994-277.775 260.169-279.068 253.709-273.806 248.995-271.059 243.791Z" fill="#E6E6E7" fill-rule="nonzero" fill-opacity="1"/><path d="M313.435 248.692C311.723 246.306 314.203 243.838 316.089 242.592 317.73 243.396 319.441 244.175 320.885 245.351 331.221 253.453 341.872 261.229 353.338 267.678 357.494 270.588 361.848 265.082 366.283 266.898 369.391 267.922 370.136 271.635 369.728 274.511 368.448 275.977 366.271 276.373 365.118 277.979 364.234 279.842 363.931 281.914 363.815 283.951 364.024 294.579 367.481 304.823 367.854 315.439 367.947 321.003 370.799 326.09 370.846 331.654 368.902 336.135 361.906 334.727 360.823 330.408 359.741 325.519 359.275 320.526 358.798 315.543 358.332 310.701 359.31 305.265 356.004 301.179 352.605 303.647 351.755 308.047 352.489 311.97 353.385 318.372 355.492 325.415 351.965 331.421 349.299 331.456 345.213 331.386 344.398 328.232 343.444 319.815 345.365 308.85 337.135 303.402 334.376 303.577 334.038 306.941 333.561 309.036 332.607 320.374 333.061 331.968 330.081 343.062 329.254 345.914 328.16 348.917 325.785 350.849 323.597 352.362 320.559 351.606 318.521 350.22 316.17 347.136 317.753 343.108 318.754 339.837 323.841 326.171 326.46 310.666 321.21 296.662 317.486 291.657 311.037 290.26 305.787 287.455 296.975 282.752 286.522 281.53 278.525 275.29 276.406 274.301 276.557 271.205 277.943 269.668 282.32 267.363 287.418 269.342 291.83 270.553 298.942 273.393 305.996 276.664 312.131 281.332 314.797 283.136 317.8 285.348 321.234 284.673 324.214 281.832 323.958 277.141 322.712 273.533 318.102 270.937 312.329 270.145 308.755 265.955 306.671 263.755 305.647 260.868 304.879 258.016 308.22 254.803 313.376 256.689 316.496 259.285 321.595 263.068 326.181 268.655 332.863 269.389 334.527 267.34 332.793 264.756 331.245 263.254 325.669 257.958 317.718 255.339 313.435 248.692M339.765 278.224C337.205 278.876 334.609 279.295 332.059 279.912 330.814 284.091 330.406 288.991 332.944 292.798 335.179 296.08 338.916 299.27 343.141 298.711 348.077 296.569 353.012 293.345 355.748 288.572 357.762 285.127 356.109 280.831 353.583 278.166 350.195 275.593 346.179 273.207 341.803 273.288 339.742 274.092 340.219 276.524 339.765 278.224Z" fill="#E6E6E7" fill-rule="nonzero" fill-opacity="1"/><path d="M-226.324 253.208C-219.969 251.905-213.543 250.857-207.071 250.45-205.43 253.465-203.02 257.935-205.814 260.914-211.692 263.033-218.025 259.774-223.903 261.892-228.513 263.371-232.098 266.77-235.742 269.785-241.888 274.883-247.603 280.866-250.816 288.281-255.263 298.257-258.184 308.99-259.069 319.885-258.941 329.582-248.581 335.216-247.848 344.703-248.93 347.252-251.934 346.274-253.924 345.564-258.045 343.83-262.166 341.211-264.109 337.009-265.925 333.272-268.219 329.733-269.662 325.834-270.908 316.125-264.622 307.733-263.225 298.409-262.829 295.661-263.749 292.193-266.705 291.296-269.487 290.039-272.491 291.261-275.343 291.529-276.565 288.852-277.659 286.093-279.405 283.707-281.745 284.358-284.154 284.568-286.541 284.114-286.529 280.145-284.015 276.897-283.118 273.16-283.06 270.239-284.306 267.293-283.375 264.418-282.234 261.857-279.219 261.706-276.891 261.077-276.157 263.813-275.68 266.607-275.086 269.377-272.479 268.318-269.86 267.002-266.961 267.096-265.693 270.099-264.983 273.835-261.514 275.058-259.57 274.511-257.626 273.998-255.647 273.556-254.052 274.278-252.027 276.618-250.269 274.941-246.521 271.228-244.553 266.083-240.828 262.323-236.824 258.237-232.11 254.256-226.324 253.208M-261.409 289.015C-258.254 288.095-253.819 284.137-257.428 281.064-261.234 280.983-262.305 286.023-261.409 289.015Z" fill="#E6E6E7" fill-rule="nonzero" fill-opacity="1"/><path d="M-223.216 289.178C-222.145 283.474-223.74 277.549-222.017 271.915-218.525 272.136-213.112 270.879-211.553 275.093-209.387 279.33-212.693 283.52-213.776 287.548-214.812 292.309-217.478 296.569-218.118 301.423-217.943 306.08-213.66 309.618-214.637 314.438-214.882 319.222-218.49 323.215-223.135 324.192-225.707 321.713-224.415 317.918-224.823 314.787-232.89 314.286-234.135 325.019-241.364 326.357-243.611 326.753-245.764 325.892-247.883 325.298-249.07 321.108-246.113 318.023-243.692 315.055-246.02 313.285-249.012 312.435-251.095 310.363-252.306 299.247-246.276 289.038-240.631 279.958-238.361 276.001-232.343 275.186-229.281 278.643-226.662 283.09-228.955 288.479-227.512 293.275-225.603 292.507-223.472 291.482-223.216 289.178M-242.54 303.519C-237.639 300.178-235.846 294.067-234.81 288.537-235.614 288.049-237.22 287.082-238.023 286.605-240.735 291.645-246.334 297.675-242.54 303.519M-234.799 303.286C-237.022 304.788-237.86 307.453-238.756 309.851-238.186 310.224-237.034 310.957-236.463 311.33-234.345 310.259-232.156 308.734-232.028 306.126-231.283 304.427-233.006 302.297-234.799 303.286Z" fill="#E6E6E7" fill-rule="nonzero" fill-opacity="1"/><path d="M26.624 274.802C36.6116 274.813 46.5991 274.813 56.5867 274.802 56.575 314.635 56.575 354.458 56.5867 394.291 46.5991 394.268 36.6116 394.28 26.624 394.291 26.6356 364.387 26.6473 334.494 26.624 304.59 22.8525 306.254 19.1508 308.059 15.4607 309.863 13.2025 305.207 11.0606 300.492 8.91877 295.789 12.6903 293.974 16.4618 292.193 20.1984 290.318 22.4334 294.753 24.3541 299.328 26.6356 303.728 26.624 294.09 26.6473 284.44 26.624 274.802M35.9597 290.54C35.983 292.274 36.0062 294.008 36.0411 295.755 39.7196 295.743 43.4096 295.743 47.1113 295.755 47.1229 294.008 47.1579 292.274 47.1811 290.54 43.4329 290.528 39.6963 290.528 35.9597 290.54M35.9713 302.425C35.983 304.147 35.9946 305.882 36.0062 307.616 39.7196 307.605 43.4212 307.605 47.1346 307.616 47.1462 305.882 47.1462 304.147 47.1695 302.425 43.4329 302.425 39.6963 302.413 35.9713 302.425M35.983 314.147C35.983 315.869 35.983 317.592 35.9946 319.327 39.7079 319.327 43.4329 319.327 47.1462 319.327 47.1462 317.592 47.1462 315.869 47.1579 314.147 43.4329 314.147 39.7079 314.147 35.983 314.147M36.0062 325.845C35.9946 327.638 35.983 329.442 35.983 331.246 39.7079 331.246 43.4329 331.246 47.1579 331.246 47.1462 329.442 47.1346 327.638 47.1346 325.845 43.4212 325.845 39.7079 325.845 36.0062 325.845Z" fill="#E6E6E7" fill-rule="nonzero" fill-opacity="1"/><path d="M65.5033 284.964C74.5014 284.975 83.4995 284.975 92.4976 284.964 92.521 292.74 92.4976 300.504 92.521 308.28 99.8312 304.24 107.083 300.085 114.428 296.092 130.225 324.658 145.997 353.224 161.759 381.813 154.239 385.98 146.731 390.159 139.223 394.35 123.636 366.215 108.201 337.986 92.5326 309.886 92.486 338.021 92.5093 366.156 92.5093 394.291 83.5112 394.28 74.5014 394.28 65.4917 394.291 65.5149 357.845 65.4917 321.41 65.5033 284.964M73.221 302.425C73.2326 304.147 73.2443 305.882 73.2675 307.616 77.1089 307.605 80.9503 307.605 84.8033 307.616 84.8033 305.882 84.8033 304.147 84.8149 302.413 80.9503 302.425 77.0856 302.413 73.221 302.425M73.2326 314.147C73.2326 315.869 73.2443 317.592 73.2559 319.327 77.0973 319.327 80.9503 319.315 84.8033 319.338 84.8033 317.604 84.8033 315.869 84.8149 314.135 80.9503 314.147 77.0973 314.147 73.2326 314.147M106.571 320.479C107.386 322.027 108.212 323.575 109.039 325.124 112.263 323.284 115.511 321.492 118.77 319.711 117.944 318.151 117.106 316.603 116.279 315.055 113.09 316.94 109.842 318.733 106.571 320.479M73.2559 325.845C73.2443 327.65 73.2443 329.442 73.2443 331.246 77.0973 331.246 80.9503 331.235 84.8149 331.258 84.8033 329.454 84.8033 327.65 84.8033 325.845 80.9503 325.845 77.1089 325.845 73.2559 325.845M112.205 330.816C113.055 332.271 113.893 333.738 114.743 335.204 118.037 333.388 121.331 331.549 124.614 329.71 123.729 328.197 122.856 326.695 121.995 325.193 118.747 327.102 115.511 329.011 112.205 330.816Z" fill="#E6E6E7" fill-rule="nonzero" fill-opacity="1"/><path d="M-299.019 302.774C-296.68 298.432-297.529 293.182-295.003 288.956-293.164 289.341-291.372 289.899-289.602 290.563-290.638 295.277-292.978 299.526-294.608 304.043-293.781 304.357-292.105 304.974-291.278 305.288-287.1 302.378-289.625 295.824-285.575 293.066-284.574 292.996-282.56 292.844-281.547 292.775-279.231 296.697-283.538 301.68-279.882 304.904-277.333 301.796-276.146 293.95-270.745 296.174-268.545 299.293-269.429 303.658-270.78 306.976-272.63 310.817-274.796 315.881-279.789 315.997-285.633 315.951-291.639 314.321-296.563 311.132-299.357 309.421-300.94 305.742-299.019 302.774Z" fill="#E6E6E7" fill-rule="nonzero" fill-opacity="1"/><path d="M-61.8555 317.127C-38.8655 315.625-16.539 308.443 3.9832 298.187 5.99699 302.972 8.20868 307.686 10.1643 312.505-9.75263 321.969-31.0897 328.965-53.1135 331.153-35.3734 331.316-17.6332 331.223 0.0952367 331.235 0.0836204 336.508 0.11854 341.769 0.0719685 347.031-23.6398 347.031-47.3631 347.019-71.0749 347.031-71.168 341.769-71.0981 336.496-71.1331 331.235-66.8028 331.246-62.4609 331.246-58.1306 331.223-59.4343 326.544-60.6566 321.841-61.8555 317.127Z" fill="#E6E6E7" fill-rule="nonzero" fill-opacity="1"/><path d="M5.64778 331.246C9.73362 331.235 13.8078 331.246 17.8936 331.235 17.8703 336.508 17.9169 341.769 17.847 347.043 13.7961 347.019 9.75688 347.031 5.72928 347.031 5.61286 341.769 5.6827 336.508 5.64778 331.246Z" fill="#E6E6E7" fill-rule="nonzero" fill-opacity="1"/><path d="M-71.1214 354.69C-47.3864 354.702-23.6398 354.69 0.0952367 354.69 0.0952367 359.929 0.0952367 365.179 0.0836204 370.417-23.6514 370.417-47.3864 370.405-71.1214 370.417-71.1214 365.179-71.1214 359.929-71.1214 354.69Z" fill="#E6E6E7" fill-rule="nonzero" fill-opacity="1"/><path d="M5.65944 354.702C9.73362 354.69 13.8078 354.69 17.882 354.69 17.882 359.929 17.882 365.179 17.882 370.417 13.8194 370.405 9.74523 370.417 5.6827 370.417 5.64778 365.179 5.67105 359.94 5.65944 354.702Z" fill="#E6E6E7" fill-rule="nonzero" fill-opacity="1"/><path d="M-71.1331 378.309C-47.3864 378.321-23.6398 378.332 0.0952367 378.309 0.0952367 383.547 0.0952367 388.797 0.0952367 394.035-23.6514 394.012-47.3864 394.012-71.1331 394.035-71.1214 388.797-71.1098 383.559-71.1331 378.309Z" fill="#E6E6E7" fill-rule="nonzero" fill-opacity="1"/><path d="M5.65944 378.321C9.73362 378.321 13.8194 378.321 17.8936 378.321 17.882 383.559 17.882 388.797 17.8936 394.035 13.8194 394.012 9.74523 394.024 5.67105 394.024 5.65944 388.786 5.67105 383.547 5.65944 378.321Z" fill="#E6E6E7" fill-rule="nonzero" fill-opacity="1"/><path d="M-90.1886 405.385C-77.7216 404.884-65.2313 405.292-52.7527 405.164-46.8742 405.315-40.9608 404.768-35.1173 405.56-35.8506 407.736-36.8867 409.797-37.9925 411.81-45.3493 425.325-52.6479 438.886-59.9814 452.413-68.5721 452.401-77.1628 452.541-85.7535 452.634-85.8001 441.971-85.6837 431.308-85.8117 420.646-88.07 421.228-91.2595 421.134-92.0976 423.858-95.8342 432.915-94.612 443.03-94.7633 452.599-100.898 452.61-107.032 452.61-113.167 452.61-114.657 451.12-116.147 449.63-117.637 448.152-117.509 437.804-117.905 427.42-117.451 417.095-111.374 408.481-99.9782 406.433-90.1886 405.385Z" fill="#E6E6E7" fill-rule="nonzero" fill-opacity="1"/><path d="M-8.25099 405.268C73.4189 405.14 155.089 405.257 236.759 405.21 236.7 411.007 236.84 416.804 236.712 422.613 236.724 425.232 234.314 426.931 232.463 428.387 225.316 433.078 216.609 434.09 208.367 435.406 208.297 438.793 208.309 442.181 208.286 445.58 213.687 446.441 218.727 450.608 219.135 456.312 219.286 466.393 219.181 476.485 219.193 486.577 219.216 492.584 214.001 497.287 208.321 498.113 208.309 503.165 208.321 508.217 208.309 513.281 213.71 514.328 218.727 518.473 219.135 524.246 219.309 533.791 219.146 543.36 219.216 552.917 219.414 557.294 216.923 561.577 213.105 563.708 209.054 566.001 204.188 565.221 199.742 565.221 193.514 565 188.101 559.238 188.474 552.987 188.532 543.36 188.357 533.722 188.555 524.107 188.939 518.414 193.933 514.387 199.206 513.234 199.183 508.217 199.206 503.212 199.171 498.206 193.945 497.147 188.869 493.201 188.555 487.544 188.427 477.102 188.427 466.649 188.555 456.207 188.893 450.515 193.956 446.546 199.23 445.486 199.183 442.623 199.183 439.748 199.183 436.884 181.815 439.608 163.994 445.952 152.283 459.711 146.905 459.921 141.423 459.222 136.103 460.084 125.638 465.822 115.965 474.18 110.808 485.157 101.95 483.923 93.7315 494.609 97.375 502.897 98.3296 506.238 100.727 508.857 103.312 511.057 113.485 519.427 122.775 528.844 131.307 538.867 135.323 543.36 137.907 549.727 136.231 555.745 135.579 557.829 133.472 558.982 131.354 558.842 78.9248 558.888 26.496 558.853-25.9329 558.865-31.4389 558.679-37.0613 559.482-42.4276 557.957-45.4657 551.578-43.0096 544.058-38.5745 539.006-30.7521 529.81-22.3593 521.068-13.1051 513.304-8.93778 510.115-4.74719 506.262-3.93237 500.779-1.91855 494.097-7.6457 488.661-12.5813 485.192-14.3506 485.227-16.12 485.25-17.8777 485.285-20.4153 480.524-23.6979 476.206-27.4695 472.353-4.0604 472.341 19.3487 472.458 42.7577 472.295 46.1218 472.132 46.2848 467.941 46.0287 465.427 46.4012 462.842 44.2827 460.456 41.6402 460.701 20.2566 460.619-1.13865 460.747-22.5223 460.642-14.6184 445.766-6.65625 430.913 1.30586 416.059 2.12071 414.546 2.78423 412.951 3.37787 411.333-0.440217 409.203-4.35141 407.236-8.25099 405.268M208.554 454.543C208.402 456.463 208.274 458.396 208.181 460.328 205.271 460.759 202.326 460.747 199.416 460.445 199.253 458.501 199.125 456.568 199.008 454.636 197.565 456.44 195.551 458.268 195.761 460.805 195.726 468.197 195.714 475.577 195.772 482.969 195.598 485.46 197.705 487.159 199.043 488.999 199.136 486.729 199.218 484.482 199.346 482.224 202.279 481.665 205.294 481.677 208.228 482.364 208.286 484.552 208.344 486.752 208.472 488.952 210.078 486.985 212.022 484.866 211.766 482.119 211.755 475.007 211.801 467.883 211.743 460.782 211.836 458.268 209.869 456.44 208.554 454.543M70.7764 461.178C67.9012 462.063 68.7161 465.764 68.623 468.057 68.2155 470.525 70.4272 472.853 72.9416 472.364 84.0583 472.236 95.2099 472.655 106.315 472.155 110.005 469.897 109.9 460.805 104.487 460.712 95.1633 460.607 85.8509 460.736 76.5269 460.666 74.6178 460.782 72.5691 460.351 70.7764 461.178M5.96207 490.093C5.53137 492.689 7.30072 495.843 10.2458 495.436 34.2369 495.436 58.2396 495.517 82.2191 495.401 86.9917 494.796 86.0837 488.626 85.3504 485.262 84.0001 484.634 82.7429 483.493 81.1598 483.726 57.4481 483.749 33.7364 483.691 10.013 483.749 6.50917 483.411 5.57794 487.346 5.96207 490.093M4.71652 508.939C4.42551 509.253 3.84348 509.87 3.55247 510.173 3.31968 513.444 1.95773 519.427 6.71869 519.846 32.6654 519.951 58.6238 519.893 84.5705 519.869 86.8869 520.067 89.1219 518.03 88.633 515.632 88.9706 512.757 88.761 507.973 84.78 508.194 58.7635 508.159 32.7469 508.136 6.73034 508.206 6.21816 508.392 5.21709 508.753 4.71652 508.939M208.542 522.36C208.391 524.165 208.274 525.957 208.181 527.773 206.132 528.157 204.06 528.448 202.012 528.798 198.554 528.332 199.16 524.933 198.95 522.326 197.6 524.2 195.563 526.027 195.761 528.565 195.831 536.259 195.493 543.988 195.947 551.683 198.112 559.133 211.068 558.446 211.906 550.507 212.337 543.558 212.057 536.573 212.057 529.624 212.372 526.644 210.276 524.456 208.542 522.36M-16.2131 534.769C-19.4957 537.516-19.1 546.573-13.3495 545.956 25.9139 546.002 65.1774 545.956 104.429 545.979 106.781 546.258 109.819 545.211 109.889 542.44 110.319 539.344 110.412 534.036 105.931 534.292 67.0282 534.094 28.1023 534.292-10.8003 534.199-12.6045 534.304-14.5369 533.978-16.2131 534.769Z" fill="#E6E6E7" fill-rule="nonzero" fill-opacity="1"/><path d="M-24.5361 408.33C-19.6238 410.705-14.8046 413.289-10.1717 416.187-36.7819 465.834-63.5202 515.399-90.0722 565.081-81.7841 569.679-73.2982 573.928-65.0101 578.538-65.3943 573.008-60.7381 567.991-55.0691 568.841 13.6565 568.888 82.4053 568.806 151.131 568.888 155.741 568.631 159.791 572.752 159.431 577.373 159.489 593.321 159.559 609.28 159.396 625.228 159.477 629.604 155.322 633.097 151.049 632.747 81.9397 632.759 12.83 632.747-56.2798 632.747-60.5984 633.073-64.8239 629.488-64.7308 625.065-64.8239 609.781-64.6958 594.497-64.789 579.224-69.969 588.269-74.9279 597.477-80.4222 606.335-97.5803 597.43-114.482 588.013-131.606 579.05-132.525 571.076-136.238 563.277-142.978 558.644-139.754 553.115-136.634 547.539-133.363 542.056-123.702 547.108-114.087 552.265-104.425 557.317-77.7681 507.67-51.2627 457.93-24.5361 408.33M-55.9305 576.454C-57.6301 577.048-57.4671 579.248-57.5369 580.714-57.4671 594.473-57.6301 608.256-57.4554 622.015-57.3623 624.366-55.0226 625.938-52.7876 625.647 14.0173 625.67 80.8339 625.647 147.65 625.658 150.025 626.042 152.772 624.296 152.551 621.689 152.609 608.023 152.574 594.357 152.563 580.691 152.993 577.897 150.304 575.604 147.627 575.93 80.4497 575.918 13.2723 575.883-53.8934 575.942-54.4056 576.07-55.4183 576.326-55.9305 576.454Z" fill="#E6E6E7" fill-rule="nonzero" fill-opacity="1"/><path d="M353.816 472.667C354.246 469.35 354.642 466.044 354.991 462.726 361.347 468.558 368.739 473.109 375.839 477.952 377.225 478.743 378.528 480.001 380.216 480.105 385.932 480.652 391.682 480.571 397.421 480.327 396.979 484.319 396.618 488.312 396.362 492.328 390.495 490.803 384.418 490.233 378.389 489.802 370.275 493.003 362.348 496.728 354.572 500.674 355.317 500.93 356.819 501.442 357.564 501.699 355.783 505.412 354.386 509.311 353.583 513.362 366.422 516.272 379.343 519.183 392.509 520.125 391.589 524.013 390.844 527.936 390.146 531.871 377.586 527.762 364.467 525.911 351.534 523.431 350.684 527.738 350.265 532.138 350.486 536.539 348.496 535.759 346.517 535.025 344.515 534.315 347.402 523.117 349.369 511.709 351.476 500.36 352.221 496.6 352.291 492.759 352.547 488.94 359.671 487.392 366.446 484.587 373.174 481.851 367.062 478.15 360.788 474.448 353.816 472.667Z" fill="#E6E6E7" fill-rule="nonzero" fill-opacity="1"/><path d="M-291.919 468.558C-287.251 463.855-278.078 463.611-274.237 469.478-269.906 476.113-270.861 484.447-270.651 491.99-273.329 491.536-275.994 491.059-278.672 490.593-275.133 486.985-273.957 481.037-276.611 476.613-278.614 473.168-283.98 473.494-286.261 476.45-290.44 481.432-291.453 488.521-296.517 492.84-301.953 496.891-310.683 494.819-313.547 488.615-316.713 481.91-315.887 474.262-316.061 467.068-313.232 467.254-310.404 467.324-307.564 467.359-310.59 471.864-313.035 478.01-310.404 483.248-308.716 486.717-303.664 486.438-301.464 483.667-297.739 478.976-296.342 472.737-291.919 468.558Z" fill="#E6E6E7" fill-rule="nonzero" fill-opacity="1"/><path d="M-282.164 500.767C-278.008 499.964-273.888 498.823-270.104 496.903-269.79 500.93-268.847 504.865-268.079 508.823-274.353 509.253-280.511 510.487-286.669 511.686-285.97 516.459-284.958 521.173-284.003 525.899-277.822 524.7-271.362 524.002-265.797 520.824-265.192 524.98-264.307 529.089-263.481 533.209-278.055 534.676-292.652 536.993-306.702 541.195-307.226 537.284-308.134 533.442-308.786 529.554-302.151 529.228-295.585 528.076-289.078 526.784-289.695 521.965-290.557 517.169-291.814 512.478-298.298 513.805-304.77 515.202-311.137 517.017-311.696 513.211-312.534 509.463-313.384 505.714-302.896 504.609-292.524 502.688-282.164 500.767Z" fill="#E6E6E7" fill-rule="nonzero" fill-opacity="1"/><path d="M343.444 537.027C349.334 540.066 355.771 541.788 362.104 543.674 370.008 545.828 377.911 548.167 386.048 549.331 384.733 553.126 383.534 556.968 382.707 560.914 372.859 556.991 362.651 554.081 352.477 551.171 348.461 549.972 344.294 549.366 340.115 549.308 341.57 545.316 342.757 541.23 343.444 537.027Z" fill="#E6E6E7" fill-rule="nonzero" fill-opacity="1"/><path d="M-304.851 549.343C-291.5 551.066-277.997 551.124-264.563 551.159-262.433 551.229-260.326 550.891-258.266 550.379-257.137 553.836-255.856 557.247-254.366 560.576-263.318 565.943-271.711 572.159-280.22 578.165-284.539 581.029-288.438 584.463-292.245 587.955-293.327 583.718-294.712 579.574-296.261 575.488-291.418 573.369-286.843 570.703-282.49 567.724-283.735 564.068-284.911 560.39-286.215 556.758-291.476 556.781-296.738 557.515-301.697 559.342-302.512 555.943-303.548 552.591-304.851 549.343M-281.594 556.607C-280.697 559.517-279.685 562.404-278.637 565.279-274.295 562.404-270.046 559.366-265.821 556.327-271.082 556.304-276.355 556.176-281.594 556.607Z" fill="#E6E6E7" fill-rule="nonzero" fill-opacity="1"/><path d="M338.578 554.849C340.86 556.293 343.153 557.736 345.504 559.086 340.801 561.193 336.96 566.047 337.74 571.402 338.438 575.267 343.444 576.931 346.692 575.115 352.104 572.287 356.016 567.06 361.882 564.976 368.32 563.067 375.863 568.212 376.224 574.999 376.969 582.786 372.149 589.375 369.507 596.324 367.54 594.741 363.605 594.392 362.942 591.994 366.888 588.979 370.962 585.08 371.183 579.783 371.265 575.942 366.364 573.346 363.14 575.197 357.645 577.921 353.688 583.229 347.669 584.998 341.453 587.128 333.282 583.182 332.572 576.256 331.524 568.597 335.738 561.659 338.578 554.849Z" fill="#E6E6E7" fill-rule="nonzero" fill-opacity="1"/><path d="M-269.033 586.756C-262.259 583.613-255.251 580.691-249.419 575.942-247.836 579.748-246.055 583.473-243.971 587.047-251.305 595.451-257.148 604.973-263.527 614.076-254.762 609.792-245.764 605.73-237.988 599.723-236.836 602.54-235.555 605.299-234.112 607.988-248.011 612.621-261.13 619.198-274.109 625.914-275.378 623.458-276.716 621.049-278.136 618.686-271.385 607.965-263.981 597.675-256.66 587.349-266.542 591.936-276.32 596.802-285.295 603.006-286.517 600.189-287.891 597.43-289.323 594.729-282.339 592.657-275.657 589.724-269.033 586.756Z" fill="#E6E6E7" fill-rule="nonzero" fill-opacity="1"/><path d="M-13.3961 587.629C-12.6162 584.463-8.91451 584.055-6.2139 584.113 3.57577 584.148 13.3655 584.09 23.1551 584.148 25.9372 583.985 29.3013 585.708 29.3944 588.804 29.4992 592.692 30.3955 597.407 26.8102 600.107 31.1871 602.738 29.4177 608.209 29.6738 612.423 30.0929 615.368 27.0198 617.347 24.3541 617.033 13.3189 617.033 2.28366 617.044-8.73991 617.021-11.4638 617.3-14.4903 615.252-14.0596 612.26-13.8734 608.046-15.4681 602.692-11.1379 600.073-14.7813 596.953-13.3612 591.819-13.3961 587.629M-3.51329 597.442C4.01812 598.024 11.5845 597.628 19.1391 597.675 19.8608 595.428 19.8608 593.077 19.791 590.76 12.3411 589.899 4.7864 590.341-2.68683 590.446-4.56097 592.145-3.17575 595.195-3.51329 597.442M-4.20008 610.479C-0.288885 611.69 3.84348 611.189 7.88274 611.282 11.8987 611.236 15.9846 611.573 19.9423 610.63 19.954 608.326 19.9191 606.032 19.8027 603.751 12.2479 603.46 4.6816 603.518-2.87308 603.669-5.17791 605.148-3.83923 608.232-4.20008 610.479Z" fill="#E6E6E7" fill-rule="nonzero" fill-opacity="1"/><path d="M43.6075 585.021C53.6649 583.159 64.0017 584.567 74.1871 584.125 78.2147 584.381 84.2329 582.763 86.1768 587.571 86.5261 595.824 86.3049 604.112 86.2933 612.388 86.5028 615.089 83.8255 617.207 81.2529 617.009 69.5542 616.998 57.8322 617.184 46.1451 616.905 42.7228 616.73 41.9662 612.993 41.7217 610.258 46.3081 610.002 50.9526 609.874 55.4342 611.108 62.3021 611.271 69.2865 611.736 76.1078 610.665 76.1427 608.71 76.1311 606.742 76.0962 604.787 66.062 603.949 55.9581 604.868 45.9123 604.321 43.1186 603.914 41.745 600.957 42.036 598.385 42.2688 593.915 41.0699 589.026 43.6075 585.021M52.3961 598.024C60.1952 598.513 68.1573 598.85 75.9099 597.907 76.3173 595.521 76.1311 593.088 76.0845 590.69 68.4833 589.969 60.7889 590.318 53.1644 590.446 51.3368 592.401 52.6522 595.568 52.3961 598.024Z" fill="#E6E6E7" fill-rule="nonzero" fill-opacity="1"/><path d="M98.6671 588.746C98.6322 586.279 100.727 584.253 103.172 584.23 113.672 583.974 124.183 584.218 134.695 584.102 137.209 584.172 140.468 583.927 142.016 586.407 142.692 587.978 142.529 589.747 142.692 591.435 139.595 591.447 136.51 591.47 133.426 591.365 131.633 590.585 129.712 590.143 127.745 590.294 121.913 590.399 116.081 590.132 110.261 590.423 107.444 590.609 108.527 594.322 108.666 596.219 110.191 597.151 112.019 596.988 113.742 597.034 122.041 597.058 130.341 596.906 138.641 597.093 140.852 597.011 142.564 599.153 142.552 601.271 142.633 605.322 142.761 609.408 142.459 613.471 142.203 616.008 139.374 617.277 137.081 617.033 125.72 616.998 114.359 617.103 102.997 616.986 100.53 617.044 98.4692 614.879 98.6671 612.423 98.5158 604.531 98.5158 596.627 98.6671 588.746M108.445 610.526C115.453 612.097 122.74 610.921 129.864 611.271 133.984 611.515 132.262 606.067 132.541 603.553 125.184 602.773 117.746 603.204 110.366 603.239 107.002 603.611 108.957 608.302 108.445 610.526Z" fill="#E6E6E7" fill-rule="nonzero" fill-opacity="1"/><path d="M-47.8753 587.396C-41.019 585.813-34.058 582.996-26.9107 584.602-26.6663 595.405-26.8758 606.219-26.7943 617.033-30.3098 617.033-33.8136 617.033-37.3174 617.033-37.3523 608.477-37.2242 599.921-37.3988 591.377-40.9492 591.866-44.4181 592.739-47.8869 593.612-47.8869 591.528-47.8753 589.456-47.8753 587.396Z" fill="#E6E6E7" fill-rule="nonzero" fill-opacity="1"/><path d="M321.746 594.508C323.667 590.981 327.077 587.268 331.512 587.99 338.427 588.49 343.898 595.987 341.453 602.68 343.176 601.097 345.19 599.421 347.728 599.793 354.444 600.445 361.137 602.11 367.935 601.376 365.887 605.09 363.838 608.791 362.034 612.633 356.19 611.259 350.312 609.618 344.282 609.455 341.046 609.082 339.591 612.423 338.124 614.658 344.189 617.615 350.219 620.723 356.633 622.923 354.689 626.392 352.884 629.93 351.231 633.551 342.582 627.765 333.177 623.307 323.969 618.523 320.081 616.497 316.042 614.74 311.805 613.645 315.181 607.29 318.428 600.887 321.746 594.508M320.978 605.381C325.355 608.023 329.848 610.467 334.516 612.563 335.924 609.594 338.357 606.044 336.332 602.773 334.178 599.828 330.441 597.488 326.716 597.931 323.55 599.153 322.468 602.657 320.978 605.381Z" fill="#E6E6E7" fill-rule="nonzero" fill-opacity="1"/><path d="M-249.594 623.668C-243.331 619.361-234.473 617.65-227.791 622.003-220.004 627.055-216.046 635.867-211.483 643.596-214.311 644.516-217.105 645.564-219.806 646.832-218.176 638.638-223.496 626.974-233.157 628.01-240.898 629.476-247.859 634.4-252.853 640.372-256.951 645.366-253.994 652.327-249.629 656.052-244.751 653.828-239.921 650.977-236.917 646.39-234.962 649.917-232.703 653.258-230.294 656.494-236.207 659.439-241.969 662.745-247.266 666.714-253.458 659.718-260.71 652.338-262.014 642.677-263.108 634.191-256.159 627.719-249.594 623.668Z" fill="#E6E6E7" fill-rule="nonzero" fill-opacity="1"/><path d="M293.04 641.676C298.616 633.958 303.878 626.019 309.116 618.069 310.606 619.535 312.131 620.979 313.702 622.387 309.651 626.031 306.357 630.384 303.331 634.889 307.149 637.846 311.141 640.581 315.146 643.27 317.462 639.999 319.499 636.554 321.397 633.027 322.945 634.307 324.482 635.611 326.053 636.903 323.399 639.58 320.966 642.467 318.847 645.587 323.026 648.171 326.74 651.826 331.582 653.142 336.914 650.103 338.974 643.259 340.72 637.683 342.338 639.371 344.003 641.024 345.725 642.607 340.219 650.371 334.911 658.275 329.766 666.272 323.154 660.3 315.635 655.493 308.359 650.418 303.47 647.147 298.698 643.515 293.04 641.676Z" fill="#E6E6E7" fill-rule="nonzero" fill-opacity="1"/><path d="M285.369 651.361C287.697 649.044 289.874 646.565 291.83 643.934 298.244 658.042 307.405 670.684 315.064 684.129 313.458 686.189 311.921 688.319 310.443 690.484 299.594 685.421 288.396 681.16 277.314 676.644 273.845 675.224 270.272 674.083 266.605 673.419 269.69 670.288 272.367 666.784 275.207 663.432 284.426 669.392 294.856 673.082 304.914 677.319 298.919 668.332 293.762 658.403 285.369 651.361Z" fill="#E6E6E7" fill-rule="nonzero" fill-opacity="1"/><path d="M-218.071 658.717C-214.381 655.33-210.551 652.001-207.828 647.752-205.36 650.907-202.624 653.852-199.9 656.797-205.08 660.44-209.9 664.573-214.509 668.914-211.436 672.57-208.27 676.143-204.999 679.635-200.25 675.468-195.186 671.487-191.729 666.109-189.11 669.322-186.351 672.418-183.545 675.48-195.361 684.198-206.675 693.732-216.628 704.546-219.119 701.543-221.645 698.575-224.369 695.781-219.096 691.707-213.927 687.493-208.864 683.174-211.797 679.263-215.033 675.608-218.467 672.151-223.403 676.667-228.233 681.3-232.878 686.119-235.299 683.023-237.977 680.136-240.77 677.366-232.866 671.568-225.44 665.166-218.071 658.717Z" fill="#E6E6E7" fill-rule="nonzero" fill-opacity="1"/><path d="M254.813 684.164C257.933 681.428 260.82 678.436 263.765 675.515 272.972 686.992 283.553 697.387 294.693 706.991 291.667 709.656 288.722 712.403 286.021 715.395 279.712 707.177 272.344 699.878 265.15 692.452 262.03 689.309 258.643 686.41 254.813 684.164Z" fill="#E6E6E7" fill-rule="nonzero" fill-opacity="1"/><path d="M-186.758 698.202C-181.229 694.838-175.211 692.161-170.392 687.76-167.493 690.042-164.63 692.359-161.65 694.547-168.762 708.329-175.735 722.356-180.333 737.209-183.499 734.253-186.735 731.389-190.087 728.677-187.119 724.382-184.616 719.807-182.312 715.139-185.059 712.345-188.05 709.831-191.123 707.433-195.454 710.262-199.656 713.358-203.02 717.327-205.628 715.011-208.27 712.729-210.901 710.459-202.496 707.13-194.685 702.521-186.758 698.202M-187.259 704.965C-185.024 706.991-182.742 708.969-180.391 710.902-178.063 706.211-175.944 701.438-173.779 696.677-178.342 699.308-182.87 702.043-187.259 704.965Z" fill="#E6E6E7" fill-rule="nonzero" fill-opacity="1"/><path d="M243.347 694.407C245.792 692.591 248.201 690.729 250.413 688.634 257.968 701.194 267.396 712.508 276.814 723.706 274.718 725.557 272.681 727.466 270.702 729.422 258.724 725.01 246.979 720.016 235.141 715.279 241.776 724.021 248.958 732.39 257.036 739.852 254.557 741.644 252.147 743.542 249.819 745.544 244.651 736.464 238.155 728.235 231.66 720.086 228.994 716.699 225.979 713.591 222.662 710.844 226.003 708.387 229.227 705.768 232.44 703.149 242.09 708.353 252.531 711.798 262.694 715.861 256.641 708.376 250.844 700.542 243.347 694.407Z" fill="#E6E6E7" fill-rule="nonzero" fill-opacity="1"/><path d="M-148.915 705.221C-145.737 707.864-142.338 710.227-138.858 712.462-148.263 723.765-156.935 735.743-164.374 748.443-167.47 745.975-170.718 743.716-174.024 741.563-166.725 733.182-160.16 724.195-153.944 714.999-151.848 711.973-150.149 708.678-148.915 705.221Z" fill="#E6E6E7" fill-rule="nonzero" fill-opacity="1"/><path d="M209.764 719.12C212.686 717.479 215.584 715.768 218.378 713.917 221.998 724.195 228.482 733.1 233.394 742.762 234.244 744.566 234.652 746.533 235.199 748.466 234.046 757.103 225.747 762.143 218.332 764.995 213.815 766.928 208.03 766.264 204.957 762.155 197.972 752.947 194.096 741.516 185.727 733.333 189.335 731.401 192.885 729.352 196.354 727.164 200.009 735.638 204.957 743.46 209.706 751.341 211.382 753.82 212.907 756.696 215.619 758.197 220.555 760.141 226.236 756.8 228.133 752.121 229.064 747.779 226.305 743.868 224.361 740.236 219.845 732.972 216.155 724.975 209.764 719.12Z" fill="#E6E6E7" fill-rule="nonzero" fill-opacity="1"/><path d="M-116.997 726.302C-113.458 728.432-109.826 730.423-106.159 732.355-112.655 740.888-117.288 750.619-122.503 759.955-124.575 764.111-126.879 768.976-131.699 770.443-137.472 772.026-143.304 769.733-148.647 767.673-148.31 766.672-147.646 764.681-147.309 763.68-143.944 764.728-139.835 766.089-136.925 763.261-132.642 759.059-130.535 753.238-127.38 748.233-123.55 741.121-118.778 734.299-116.997 726.302Z" fill="#E6E6E7" fill-rule="nonzero" fill-opacity="1"/><path d="M-99.0005 736.045C-95.3453 738.024-91.5389 739.712-87.6626 741.225-95.2522 753.867-101.329 767.44-106.206 781.35-109.745 779.464-113.376 777.777-117.101 776.31-112.177 768.418-108.429 759.885-104.46 751.492-102.178 746.522-99.9433 741.47-99.0005 736.045Z" fill="#E6E6E7" fill-rule="nonzero" fill-opacity="1"/><path d="M139.479 756.777C145.567 747.826 157.033 745.917 166.624 742.774 166.741 745.812 167.183 748.827 167.858 751.807 161.968 749.374 154.6 749.804 149.618 753.995 144.752 758.535 146.37 766.066 148.221 771.665 150.223 776.845 152.563 782.898 158.01 785.273 161.596 785.937 165.682 785.797 168.755 783.608 170.675 782.34 169.383 780.198 168.976 778.487 167.835 774.82 166.264 771.27 163.796 768.301 167.521 767.009 171.234 765.659 174.878 764.146 176.402 770.583 178.323 776.962 180.954 783.038 173.551 787.345 165.495 791.175 156.87 791.955 150.304 792.49 144.461 788.044 141.644 782.375 137.512 774.738 134.299 764.704 139.479 756.777Z" fill="#E6E6E7" fill-rule="nonzero" fill-opacity="1"/><path d="M-70.2833 748.524C-66.8144 749.7-63.3223 750.782-59.7835 751.772-61.3317 767.242-62.3677 782.84-61.355 798.369-65.3594 796.774-69.3753 795.179-73.5194 793.957-72.3437 788.858-71.6336 783.655-71.4241 778.428-74.9977 776.892-78.6761 775.577-82.4011 774.506-85.3228 778.778-88.0816 783.213-89.7695 788.148-93.0521 786.856-96.3697 785.669-99.7222 784.586-92.0511 777.73-85.998 769.337-79.3629 761.538-76.2316 757.278-72.4368 753.413-70.2833 748.524M-79.5957 770.688C-76.8369 771.852-74.0083 772.888-71.1563 773.819-70.4113 768.592-70.5743 763.296-69.9341 758.058-73.368 762.097-76.5692 766.322-79.5957 770.688Z" fill="#E6E6E7" fill-rule="nonzero" fill-opacity="1"/><path d="M117.769 758.721C120.772 758.197 123.741 757.476 126.709 756.789 128.141 771.305 131.226 785.657 135.242 799.672 132.541 800.406 129.864 801.221 127.175 801.989 118.235 793.061 109.923 783.539 101.519 774.121 103.556 784.807 106.373 795.342 110.261 805.516 107.258 806.005 104.289 806.715 101.391 807.623 100.727 798.59 98.8301 789.708 97.0375 780.85 95.7919 775.251 94.5697 769.593 91.9156 764.46 96.0829 763.889 100.145 762.865 104.196 761.748 110.727 770.618 118.398 778.522 125.848 786.6 123.706 777.171 121.855 767.545 117.769 758.721Z" fill="#E6E6E7" fill-rule="nonzero" fill-opacity="1"/><path d="M-38.1671 760.863C-30.8452 759.326-22.9646 760.933-16.5041 764.611-10.486 768.045-8.22772 775.6-9.22879 782.153-10.1717 789.289-11.9294 797.135-17.7497 801.942-22.6503 805.947-29.4833 805.9-35.385 804.783-41.1005 803.56-47.3631 801.29-50.2965 795.843-53.5792 789.627-52.3336 782.258-50.7156 775.751-49.0277 769.314-45.0001 762.644-38.1671 760.863M-32.7077 766.055C-38.3301 769.058-39.855 775.902-41.2519 781.606-42.0434 786.635-43.0445 792.572-39.8317 796.995-36.1417 801.814-27.7489 801.744-24.6641 796.262-20.7529 789.685-19.1 781.711-19.5656 774.121-19.6936 767.789-27.0388 763.296-32.7077 766.055Z" fill="#E6E6E7" fill-rule="nonzero" fill-opacity="1"/><path d="M60.754 767.731C67.3774 766.183 74.9903 765.822 80.9386 769.64 86.1536 773.167 88.179 779.627 88.8542 785.611 89.3314 791.85 89.5642 798.799 85.6647 804.107 81.218 810.091 73.1977 811.813 66.1319 811.65 60.3233 811.895 53.8977 809.846 50.8013 804.596 46.8552 797.88 46.343 789.638 47.2743 782.072 48.124 774.995 53.7697 769.069 60.754 767.731M63.0239 772.457C57.902 775.192 57.2386 781.723 57.3433 786.914 57.6459 792.688 58.0767 799.044 61.7783 803.781 64.9562 808.007 71.6961 807.763 75.3861 804.375 79.0063 800.685 78.7735 795.121 78.6338 790.337 78.2729 784.994 77.7258 779.267 74.548 774.762 71.9987 771.176 66.7721 770.49 63.0239 772.457Z" fill="#E6E6E7" fill-rule="nonzero" fill-opacity="1"/><path d="M10.7696 767.3C22.6779 768.115 34.621 768.941 46.5642 768.569 45.9472 770.641 45.4234 772.736 44.9462 774.866 41.0466 773.656 37.0073 773.085 32.9564 772.725 32.0485 785.902 31.1638 799.172 32.4559 812.349 28.4399 811.965 24.4123 811.872 20.3847 811.941 22.2355 798.846 22.4916 785.564 22.5731 772.364 18.2079 772.294 13.7961 772.317 9.53571 773.4 9.96641 771.363 10.3738 769.326 10.7696 767.3Z" fill="#E6E6E7" fill-rule="nonzero" fill-opacity="1"/></g></g></g></g></g></svg>