<svg width="1024" height="1024" viewBox="0 0 1024 1024" version="1.1" xmlns="http://www.w3.org/2000/svg" xmlns:xlink="http://www.w3.org/1999/xlink" id="en2cn"><path d="M580.1 477.7h-9.8L608 687.2c24.8-8.8 47.5-22.2 67.6-39.7-20.6-24.8-37.2-52.6-50.1-82.1l39.7-5.2c10.8 22.2 23.2 42.3 37.7 59.4 29.4-35.6 51.6-83.1 67.6-142.5l-190.4 0.6z m150.2 169.8c22.7 19.6 48.5 34.1 77.4 42.8l18.1 5.7-10.8 38.7-18.1-5.7c-34.6-10.8-66.6-28.9-93.9-53.2-25.3 22.7-55.2 40.3-87.7 51.1l25.3 141.4H489.8l-20.1 92.4H943c22.2 0 40.3-18.1 40.3-40.3V236.1c0-22.2-18.1-40.3-40.3-40.3H520.3l31.5 175.5-1-0.5 3.6 19.1 0.5-2.6 8.8 50.1h97.6v-40.3h75.4v40.3h125.9v40.3H810c-17.7 70.7-44.6 127.5-79.7 169.8zM448.5 867.9h-367C37.1 867.9 1 831.8 1 787.4V103.5C1 58.6 37.1 23 81.5 23h402.6l24.8 132.7h433.6c44.4 0 80.5 36.1 80.5 80.5v684.4c0 44.4-36.1 80.5-80.5 80.5H419.6l28.9-133.2zM258.6 558.2v-42.3h-79.5v-62.5h73.8v-41.8h-73.8v-53.2h79.5v-41.8h-126v241.6h126z m194 0V437.4c0-21.7-5.2-38.7-15-50.6-9.8-11.9-24.8-17.5-44.4-17.5-11.4 0-21.7 2.1-30.5 6.7s-16 11.9-20.6 20.6h-2.6l-6.2-23.7h-35.1v185.3h45.4V471c0-21.7 3.1-37.2 8.8-47 5.7-9.3 15-13.9 27.9-13.9 9.3 0 16 3.1 20.6 9.8 4.1 6.7 6.7 16.5 6.7 29.9v108.4h45z"  /></svg>