<svg width="338" height="338" xmlns="http://www.w3.org/2000/svg" xmlns:xlink="http://www.w3.org/1999/xlink" xml:space="preserve" overflow="hidden"><g transform="translate(-376 -196)"><g><g><g><path d="M293.351 216.905C294.526 216.829 295.885 215.884 296.938 216.803 297.736 217.384 298.374 218.144 299.057 218.858 296.338 219.682 293.575 220.352 290.747 220.613 291.545 219.331 292.413 218.086 293.351 216.905Z" fill="#D6C510" fill-rule="nonzero" fill-opacity="1" transform="matrix(1 0 0 1 132.682 23.357)"/><path d="M290.747 220.613C293.575 220.352 296.338 219.682 299.057 218.858 300.053 220.365 301.016 221.89 301.929 223.447 294.692 224.513 288.36 228.808 281.085 229.555 284.365 226.657 288.711 224.692 290.747 220.613Z" fill="#ECD904" fill-rule="nonzero" fill-opacity="1" transform="matrix(1 0 0 1 132.682 23.357)"/><path d="M272.865 227.289C273.815 225.024 275.034 222.879 276.292 220.773 277.141 221.456 277.957 222.19 278.742 222.962 278.736 223.702 278.742 224.443 278.755 225.189 278.596 225.362 278.277 225.713 278.117 225.892 276.362 226.351 274.613 226.817 272.865 227.289Z" fill="#D1C016" fill-rule="nonzero" fill-opacity="1" transform="matrix(1 0 0 1 132.682 23.357)"/><path d="M281.085 229.555C288.36 228.808 294.692 224.513 301.929 223.447 302.65 224.864 303.55 226.23 303.927 227.793 303.671 230.078 302.491 232.114 301.533 234.163 300.736 234.437 299.951 234.718 299.172 235.005 299.063 233.799 299.517 232.031 298.042 231.495 295.553 231.176 295.77 234.482 296.836 235.861 290.798 238.643 284.474 240.826 278.762 244.266 274.92 246.11 271.441 248.599 267.637 250.514 268.505 245.351 269.137 240.156 270.248 235.037 273.062 234.156 275.928 233.269 278.417 231.635 279.349 231.004 280.198 230.257 281.085 229.555M287.333 234.814C288.558 236.55 290.294 235.146 291.328 234.003 291.315 233.154 291.303 232.312 291.303 231.476 290.569 230.742 289.828 230.008 289.088 229.28 287.805 230.768 286.81 232.835 287.333 234.814Z" fill="#FAE20F" fill-rule="nonzero" fill-opacity="1" transform="matrix(1 0 0 1 132.682 23.357)"/><path d="M462.078 226.625C462.78 225.375 463.494 224.085 464.624 223.166 465.926 223.071 467.222 223.358 468.517 223.556 468.09 226.134 468.211 228.955 466.781 231.253 463.903 235.886 463.718 241.713 460.629 246.232 456.895 250.782 455.14 256.82 450.315 260.489 450.341 257.266 450.194 254.043 450.373 250.827 450.851 248.172 452.287 245.823 453.398 243.398 456.155 237.737 459.103 232.172 462.078 226.625Z" fill="#01A582" fill-rule="nonzero" fill-opacity="1" transform="matrix(1 0 0 1 132.682 23.357)"/><path d="M468.517 223.556C470.106 223.99 471.702 224.43 473.285 224.928L473.119 225.375C470.713 232.012 469.27 239.128 465.275 245.083 463.552 247.521 462.799 250.546 460.776 252.786 457.54 256.322 453.825 259.36 450.29 262.583 450.296 262.059 450.309 261.013 450.315 260.489 455.14 256.82 456.895 250.782 460.629 246.232 463.718 241.713 463.903 235.886 466.781 231.253 468.211 228.955 468.09 226.134 468.517 223.556Z" fill="#01A16F" fill-rule="nonzero" fill-opacity="1" transform="matrix(1 0 0 1 132.682 23.357)"/><path d="M473.119 225.375 473.387 224.679C474.357 226.185 475.308 227.71 476.348 229.172L476.329 229.229C473.668 237.411 469.711 245.14 464.732 252.154 460.616 257.598 455.587 262.257 450.322 266.559 450.302 265.231 450.296 263.904 450.29 262.583 453.825 259.36 457.54 256.322 460.776 252.786 462.799 250.546 463.552 247.521 465.275 245.083 469.27 239.128 470.713 232.012 473.119 225.375Z" fill="#00A14D" fill-rule="nonzero" fill-opacity="1" transform="matrix(1 0 0 1 132.682 23.357)"/><path d="M272.865 227.289C274.613 226.817 276.362 226.351 278.117 225.892 277.389 227.136 276.202 228.266 276.1 229.772 276.241 230.997 277.492 231.227 278.417 231.635 275.928 233.269 273.062 234.156 270.248 235.037 270.975 232.408 271.773 229.791 272.865 227.289Z" fill="#E6D10D" fill-rule="nonzero" fill-opacity="1" transform="matrix(1 0 0 1 132.682 23.357)"/><path d="M488.908 234.003C494.04 233.716 496.407 227.519 501.717 227.736 501.66 230.078 502.011 232.58 500.951 234.769 499.86 237.245 497.984 239.32 497.09 241.892 496.886 246.289 497.071 250.699 497.007 255.103 496.299 255.626 495.603 256.15 494.914 256.679 494.901 257.515 494.946 258.358 494.876 259.194 493.695 261.408 492.31 263.508 490.829 265.531 489.195 267.88 486.081 268.078 483.63 269.093 482.583 272.667 479.195 274.473 476.323 276.413 468.389 280.421 460.635 285.405 451.636 286.535 452.198 284.384 452.434 282.163 452.396 279.949 451.675 279.406 450.979 278.845 450.29 278.283 450.309 275.794 450.302 273.305 450.309 270.822 456.104 268.282 460.01 263.183 464.573 259.034 467.005 256.96 468.677 254.222 470.54 251.676 475.014 246.404 476.042 239.269 479.405 233.378 482.322 234.827 485.768 233.997 488.908 234.003M482.315 241.79C482.239 244.279 482.13 247.291 484.364 248.944 484.422 246.455 484.728 243.334 482.315 241.79M482.315 261.428C482.839 261.428 483.885 261.428 484.409 261.434 484.402 260.726 484.402 260.017 484.409 259.321 483.7 260.017 483.005 260.719 482.315 261.428Z" fill="#00A6C2" fill-rule="nonzero" fill-opacity="1" transform="matrix(1 0 0 1 132.682 23.357)"/><path d="M464.732 252.154C469.711 245.14 473.668 237.411 476.329 229.229 477.388 230.582 478.454 231.935 479.405 233.378 476.042 239.269 475.014 246.404 470.54 251.676 468.677 254.222 467.005 256.96 464.573 259.034 460.01 263.183 456.104 268.282 450.309 270.822 450.296 269.399 450.302 267.976 450.322 266.559 455.587 262.257 460.616 257.598 464.732 252.154Z" fill="#02A38E" fill-rule="nonzero" fill-opacity="1" transform="matrix(1 0 0 1 132.682 23.357)"/><path d="M339.558 235.554C340.643 234.552 342.028 234.067 343.369 233.512 346.509 234.265 348.417 237.079 350.242 239.505 346.77 239.524 343.298 239.479 339.827 239.447 339.724 238.145 339.641 236.85 339.558 235.554Z" fill="#FACF0D" fill-rule="nonzero" fill-opacity="1" transform="matrix(1 0 0 1 132.682 23.357)"/><path d="M299.172 235.005C299.951 234.718 300.736 234.437 301.533 234.163 300.116 237.641 298.904 241.758 300.41 245.389 301.559 247.597 304.444 246.825 306.441 247.074 303.359 249.34 299.702 250.571 296.357 252.371 286.152 257.617 277.007 264.682 268.525 272.354 266.17 274.69 263.917 277.153 261.211 279.106 263.4 269.584 266.348 260.221 267.637 250.514 271.441 248.599 274.92 246.11 278.762 244.266 284.474 240.826 290.798 238.643 296.836 235.861 297.615 235.586 298.4 235.312 299.172 235.005Z" fill="#F7C90A" fill-rule="nonzero" fill-opacity="1" transform="matrix(1 0 0 1 132.682 23.357)"/><path d="M339.827 239.447C343.298 239.479 346.77 239.524 350.242 239.505 351.614 241.515 352.814 243.672 353.312 246.078 352.431 246.251 351.576 246.576 350.676 246.602 347.536 246.212 344.371 246.066 341.231 246.423 340.375 244.189 340.12 241.802 339.827 239.447Z" fill="#F0A814" fill-rule="nonzero" fill-opacity="1" transform="matrix(1 0 0 1 132.682 23.357)"/><path d="M333.304 244.049C335.359 245.612 337.057 247.636 337.963 250.074 336.584 250.508 335.212 250.935 333.84 251.369L333.795 251.382C333.329 248.97 333.215 246.506 333.304 244.049Z" fill="#E58E18" fill-rule="nonzero" fill-opacity="1" transform="matrix(1 0 0 1 132.682 23.357)"/><path d="M341.231 246.423C344.371 246.066 347.536 246.212 350.676 246.602 348.787 247.489 346.93 249.238 344.702 248.638 343.273 248.427 342.194 247.412 341.231 246.423Z" fill="#E19118" fill-rule="nonzero" fill-opacity="1" transform="matrix(1 0 0 1 132.682 23.357)"/><path d="M505.406 246.429C507.034 246.117 508.782 246.002 510.225 246.991 509.465 248.216 508.699 249.435 507.94 250.661 507.129 249.225 506.261 247.827 505.406 246.429Z" fill="#0293C6" fill-rule="nonzero" fill-opacity="1" transform="matrix(1 0 0 1 132.682 23.357)"/><path d="M306.441 247.074C310.054 247.757 312.166 250.961 314.7 253.29 310.347 255.926 305.446 257.534 301.227 260.4 295.54 264.459 289.516 268.097 284.423 272.928 280.127 276.451 276.209 280.383 272.507 284.518 271.805 284.767 271.103 285.003 270.401 285.246 270.912 283.37 271.231 281.442 271.211 279.496 268.493 280.351 266.508 282.431 264.919 284.703 263.259 287.052 261.185 289.069 258.728 290.581 259.379 286.746 260.279 282.961 261.134 279.164L261.211 279.106C263.917 277.153 266.17 274.69 268.525 272.354 277.007 264.682 286.152 257.617 296.357 252.371 299.702 250.571 303.359 249.34 306.441 247.074Z" fill="#E6A318" fill-rule="nonzero" fill-opacity="1" transform="matrix(1 0 0 1 132.682 23.357)"/><path d="M510.225 246.991C511.431 248.523 512.573 250.106 513.62 251.759L513.339 252.352C512.382 254.471 511.067 256.392 509.701 258.262 509.804 255.594 509.267 252.984 507.94 250.661 508.699 249.435 509.465 248.216 510.225 246.991Z" fill="#01A0E1" fill-rule="nonzero" fill-opacity="1" transform="matrix(1 0 0 1 132.682 23.357)"/><path d="M333.84 251.369C335.212 250.935 336.584 250.508 337.963 250.074 338.41 251.28 338.99 252.435 339.648 253.546 338.32 253.96 336.999 254.375 335.678 254.79L335.257 254.669C334.625 253.641 334.268 252.486 333.84 251.369Z" fill="#F0AF10" fill-rule="nonzero" fill-opacity="1" transform="matrix(1 0 0 1 132.682 23.357)"/><path d="M348.2 254.305C350.427 253.309 352.45 251.931 354.589 250.769 354.869 252.952 354.78 255.16 354.888 257.356 349.642 257.751 344.313 258.549 339.424 260.528L339.105 260.687C337.963 258.779 336.297 257.196 335.499 255.096L335.678 254.79C336.999 254.375 338.32 253.96 339.648 253.546 342.073 255.435 345.456 255.518 348.2 254.305Z" fill="#EE961A" fill-rule="nonzero" fill-opacity="1" transform="matrix(1 0 0 1 132.682 23.357)"/><path d="M513.339 252.352 513.614 251.803C513.875 254.675 513.735 257.566 513.773 260.445 511.929 262.73 509.931 264.88 507.87 266.974 507.729 265.838 507.531 264.708 507.551 263.572 508.214 261.779 509.376 260.177 509.701 258.262 511.067 256.392 512.382 254.471 513.339 252.352Z" fill="#0491D7" fill-rule="nonzero" fill-opacity="1" transform="matrix(1 0 0 1 132.682 23.357)"/><path d="M314.7 253.29C316.066 254.892 317.999 255.416 320.054 255.218 311.343 259.507 302.778 264.229 295.202 270.356 290.996 273.988 286.707 277.562 282.98 281.704 279.406 285.674 275.934 289.733 272.456 293.779 273.222 290.511 275.762 287.601 275.156 284.104 273.847 285.106 272.488 286.031 271.058 286.848 271.543 286.069 272.009 285.284 272.507 284.518 276.209 280.383 280.127 276.451 284.423 272.928 289.516 268.097 295.54 264.459 301.227 260.4 305.446 257.534 310.347 255.926 314.7 253.29Z" fill="#D48512" fill-rule="nonzero" fill-opacity="1" transform="matrix(1 0 0 1 132.682 23.357)"/><path d="M320.054 255.218C321.631 255.013 323.233 255.141 324.828 255.167 325.767 255.92 326.788 256.552 327.828 257.171 315.153 261.983 303.314 269.227 293.543 278.653 283.197 288.284 274.409 299.663 267.963 312.243 265.927 312.798 265.416 314.885 265.627 316.755 262.302 322.754 260.036 329.258 257.183 335.487 256.079 332.021 255.62 328.402 255.224 324.803 256.973 318.982 260.247 313.768 263.1 308.439 265.793 303.288 269.214 298.591 272.456 293.779 275.934 289.733 279.406 285.674 282.98 281.704 286.707 277.562 290.996 273.988 295.202 270.356 302.778 264.229 311.343 259.507 320.054 255.218Z" fill="#F2A814" fill-rule="nonzero" fill-opacity="1" transform="matrix(1 0 0 1 132.682 23.357)"/><path d="M327.828 257.171C329.806 258.919 332.091 260.285 334.044 262.072 331.268 263.259 328.638 264.887 325.639 265.448 324.101 265.199 322.544 265.097 320.993 265.104 321.586 265.908 322.205 266.731 322.895 267.478 309.352 275.213 297.864 286.35 289.094 299.191 288.035 297.902 286.759 296.645 284.94 297.04 285.833 294.628 287.148 292.375 289.222 290.792 289.267 290.116 289.311 289.445 289.362 288.775 290.479 289.056 291.59 289.343 292.713 289.624 292.681 287.218 292.209 284.78 292.624 282.393 293.581 281.008 294.864 279.898 296.032 278.698 295.202 278.679 294.366 278.66 293.543 278.653 303.314 269.227 315.153 261.983 327.828 257.171Z" fill="#EC941A" fill-rule="nonzero" fill-opacity="1" transform="matrix(1 0 0 1 132.682 23.357)"/><path d="M339.424 260.528C344.313 258.549 349.642 257.751 354.888 257.356 354.85 259.577 352.648 260.643 350.791 261.147 347.536 261.242 344.358 261.976 341.294 263.042 340.612 262.245 339.973 261.408 339.424 260.528Z" fill="#C13B21" fill-rule="nonzero" fill-opacity="1" transform="matrix(1 0 0 1 132.682 23.357)"/><path d="M490.829 265.531C492.31 263.508 493.695 261.408 494.876 259.194 497.033 260.751 499.158 262.442 500.843 264.523 501.902 266.514 502.585 268.691 503.606 270.714 502.758 271.741 501.915 272.769 501.213 273.892 500.703 273.911 499.675 273.943 499.164 273.956 499.139 274.224 499.094 274.766 499.075 275.034 484.071 287.365 465.479 296.638 445.733 296.932 447.469 293.326 450.309 290.352 451.636 286.535 460.635 285.405 468.389 280.421 476.323 276.413 479.195 274.473 482.583 272.667 483.63 269.093 486.081 268.078 489.195 267.88 490.829 265.531Z" fill="#019DDE" fill-rule="nonzero" fill-opacity="1" transform="matrix(1 0 0 1 132.682 23.357)"/><path d="M507.87 266.974C509.931 264.88 511.929 262.73 513.773 260.445 513.761 265.263 513.773 270.082 513.754 274.9 511.15 277.255 508.833 279.955 505.904 281.927 500.466 285.552 495.348 289.688 489.508 292.668 489.068 292.777 488.181 292.988 487.734 293.096 483.222 293.779 479.45 296.581 475.078 297.717 469.64 299.057 464.452 301.444 458.791 301.801 453.921 302.031 449.032 302.593 444.163 302.229 444.329 301.438 444.501 300.646 444.673 299.861 450.277 299.906 456.002 300.238 461.414 298.483 474.638 295.63 487.396 290.122 498.067 281.736 500.498 279.821 502.821 277.766 505.381 276.017 506.619 276.087 507.863 276.107 509.121 276.126 508.846 273.056 508.361 270.012 507.87 266.974Z" fill="#026AB8" fill-rule="nonzero" fill-opacity="1" transform="matrix(1 0 0 1 132.682 23.357)"/><path d="M341.294 263.042C344.358 261.976 347.536 261.242 350.791 261.147 350.076 262.264 349.687 263.897 348.391 264.466 346.77 264.67 345.149 264.893 343.56 265.257 342.801 264.517 342.054 263.776 341.294 263.042Z" fill="#B52121" fill-rule="nonzero" fill-opacity="1" transform="matrix(1 0 0 1 132.682 23.357)"/><path d="M334.044 262.072 334.114 262.04C334.842 262.991 335.563 263.942 336.265 264.925 324.311 270.382 313.06 277.785 304.303 287.665 298.042 294.564 292.637 302.242 288.137 310.392 287.544 310.724 286.956 311.049 286.369 311.387 286.159 311.234 285.737 310.928 285.52 310.775 285.654 309.977 285.788 309.173 285.929 308.381 288.877 306.377 289.535 302.497 289.094 299.191 297.864 286.35 309.352 275.213 322.895 267.478 324.477 267.644 326.066 267.644 327.656 267.644 327.005 266.891 326.341 266.144 325.639 265.448 328.638 264.887 331.268 263.259 334.044 262.072Z" fill="#B93524" fill-rule="nonzero" fill-opacity="1" transform="matrix(1 0 0 1 132.682 23.357)"/><path d="M343.56 265.257C345.149 264.893 346.77 264.67 348.391 264.466 347.9 265.646 347.332 266.795 346.636 267.861 345.59 267.018 344.556 266.15 343.56 265.257Z" fill="#D32D1D" fill-rule="nonzero" fill-opacity="1" transform="matrix(1 0 0 1 132.682 23.357)"/><path d="M336.265 264.925 336.316 264.9C336.629 265.85 336.942 266.801 337.261 267.765 331.262 270.28 325.894 274.032 320.865 278.111 314.706 282.278 309.894 288.022 305.356 293.83 301.616 298.687 298.183 303.78 295.234 309.154 292.7 314.266 290.435 319.506 288.437 324.847 285.974 324.867 283.51 324.816 281.053 324.816 282.4 323.15 283.236 321.165 284.04 319.199 285.246 316.193 286.765 313.328 288.137 310.392 292.637 302.242 298.042 294.564 304.303 287.665 313.06 277.785 324.311 270.382 336.265 264.925Z" fill="#AB2720" fill-rule="nonzero" fill-opacity="1" transform="matrix(1 0 0 1 132.682 23.357)"/><path d="M320.865 278.111C325.894 274.032 331.262 270.28 337.261 267.765 337.676 270.12 337.95 272.507 338.02 274.907 336.699 275.647 335.365 276.387 334.185 277.338 329.475 281.353 324.471 285.048 320.284 289.624 318.382 291.794 315.702 293.268 314.368 295.917 312.281 299.925 308.911 303.186 307.379 307.501 306.135 310.966 304.539 314.279 302.899 317.565 301.297 320.661 302.006 324.528 299.836 327.368 297.998 329.902 297.781 333.106 297.595 336.118 299.191 335.155 301.004 334.427 302.81 335.327 301.999 339.897 302.376 344.658 303.678 349.1 304.386 351.621 306.365 353.51 308.579 354.786 308.815 354.531 309.288 354.033 309.524 353.778 309.39 357.378 311.566 361.341 309.09 364.545 308.496 363.543 307.909 362.541 307.322 361.545 306.046 364.94 306.148 368.629 306.594 372.171 307.647 372.516 308.701 372.867 309.754 373.225 308.847 374.871 307.233 376.422 307.699 378.477 308.139 381.955 307.769 385.453 307.679 388.944 305.771 387.546 303.601 385.568 301.067 386.04 298.329 386.806 298.38 389.94 297.404 392.09 296.625 391.375 295.317 390.954 295.228 389.754 294.564 386.94 296.172 383.953 294.762 381.266 291.986 374.929 293.128 367.915 292.796 361.226 292.534 356.184 293.6 351.193 293.383 346.151 294.794 345.073 295.362 343.375 295.713 341.709 295.266 341.703 294.36 341.697 293.907 341.69 294.079 339.98 294.417 338.276 295.228 336.744 296.542 334.363 295.949 331.568 295.936 328.983 297.404 328.096 298.01 326.488 298.349 324.886 295.043 324.822 291.737 324.828 288.437 324.847 290.435 319.506 292.7 314.266 295.234 309.154 298.183 303.78 301.616 298.687 305.356 293.83 309.894 288.022 314.706 282.278 320.865 278.111Z" fill="#D72B1D" fill-rule="nonzero" fill-opacity="1" transform="matrix(1 0 0 1 132.682 23.357)"/><path d="M501.213 273.892C501.915 272.769 502.758 271.741 503.606 270.714 504.417 272.399 505.068 274.166 505.381 276.017 502.821 277.766 500.498 279.821 498.067 281.736 487.396 290.122 474.638 295.63 461.414 298.483 456.002 300.238 450.277 299.906 444.673 299.861 445.018 298.878 445.369 297.902 445.733 296.932 465.479 296.638 484.071 287.365 499.075 275.034 499.292 276.419 500.128 277.543 501.137 278.481 501.181 276.949 501.156 275.417 501.213 273.892Z" fill="#017AC5" fill-rule="nonzero" fill-opacity="1" transform="matrix(1 0 0 1 132.682 23.357)"/><path d="M334.185 277.338C335.365 276.387 336.699 275.647 338.02 274.907 338.039 278.883 337.899 282.865 338.256 286.835 337.452 288.143 336.661 289.458 335.876 290.773 334.823 290.103 333.77 289.439 332.723 288.769 333.534 290.754 335.123 293.147 333.368 295.119 331.836 295.126 330.534 294.053 329.021 293.907 328.702 295.368 328.715 296.874 328.728 298.368 327.949 298.961 327.171 299.555 326.398 300.148 326.169 301.208 325.952 302.274 325.735 303.339 324.413 304.124 322.85 304.68 321.873 305.911 320.565 308.528 320.227 311.509 320.061 314.4 319.697 314.4 318.957 314.4 318.593 314.4 318.599 315.823 318.612 317.246 318.606 318.67 318.567 320.393 318.363 322.103 318.153 323.814 317.329 324.133 316.506 324.458 315.689 324.79 314.464 328.492 313.602 332.315 312.096 335.921 310.832 333.368 307.635 333.087 305.133 333.393 303.971 333.432 303.327 334.427 302.81 335.327 301.004 334.427 299.191 335.155 297.595 336.118 297.781 333.106 297.998 329.902 299.836 327.368 302.006 324.528 301.297 320.661 302.899 317.565 304.539 314.279 306.135 310.966 307.379 307.501 308.911 303.186 312.281 299.925 314.368 295.917 315.702 293.268 318.382 291.794 320.284 289.624 324.471 285.048 329.475 281.353 334.185 277.338Z" fill="#E21C20" fill-rule="nonzero" fill-opacity="1" transform="matrix(1 0 0 1 132.682 23.357)"/><path d="M505.904 281.927C508.833 279.955 511.15 277.255 513.754 274.9 513.761 277.262 513.78 279.623 513.729 281.985 509.567 284.372 506.07 287.722 501.89 290.071 498.086 292.26 494.422 294.762 490.306 296.345 490.108 295.1 489.846 293.875 489.508 292.668 495.348 289.688 500.466 285.552 505.904 281.927Z" fill="#0A53A6" fill-rule="nonzero" fill-opacity="1" transform="matrix(1 0 0 1 132.682 23.357)"/><path d="M293.543 278.653C294.366 278.66 295.202 278.679 296.032 278.698 294.864 279.898 293.581 281.008 292.624 282.393 292.209 284.78 292.681 287.218 292.713 289.624 291.59 289.343 290.479 289.056 289.362 288.775 289.311 289.445 289.267 290.116 289.222 290.792 287.148 292.375 285.833 294.628 284.94 297.04 284.129 297.691 283.108 298.278 282.846 299.37 281.895 302.548 281.672 305.899 281.353 309.192 281.761 309.396 282.176 309.6 282.591 309.817 278.551 317.151 275.239 324.86 272.469 332.761 272.469 332.359 272.475 331.562 272.482 331.159 270.356 331.153 268.237 331.147 266.118 331.147 266.125 332.557 266.131 333.968 266.138 335.384 268.001 335.384 269.858 335.41 271.716 335.384 270.975 337.523 270.35 339.705 269.68 341.869 267.478 341.556 265.097 341.658 263.355 343.222 264.019 339.667 263.623 335.94 264.919 332.506 265.582 330.26 268.416 329.526 268.978 327.215 269.699 324.516 269.91 321.727 270.369 318.982 270.892 319.027 271.926 319.11 272.443 319.155 272.437 316.672 272.443 314.196 272.437 311.713 270.937 311.86 269.444 312.007 267.963 312.243 274.409 299.663 283.197 288.284 293.543 278.653Z" fill="#E28E18" fill-rule="nonzero" fill-opacity="1" transform="matrix(1 0 0 1 132.682 23.357)"/><path d="M264.919 284.703C266.508 282.431 268.493 280.351 271.211 279.496 271.231 281.442 270.912 283.37 270.401 285.246 271.103 285.003 271.805 284.767 272.507 284.518 272.009 285.284 271.543 286.069 271.058 286.848 269.156 288.641 267.491 290.658 265.978 292.79 263.1 296.855 259.883 300.665 257.049 304.756 257.215 299.989 257.917 295.266 258.728 290.581 261.185 289.069 263.259 287.052 264.919 284.703Z" fill="#DB9516" fill-rule="nonzero" fill-opacity="1" transform="matrix(1 0 0 1 132.682 23.357)"/><path d="M501.89 290.071C506.07 287.722 509.567 284.372 513.729 281.985 513.244 285.284 515.088 288.086 517.035 290.537 514.195 293.09 510.767 294.813 507.666 296.996 504.232 299.37 500.224 300.621 496.529 302.484 488.193 307.284 478.569 308.873 469.321 311.03 461.044 312.862 452.479 312.313 444.137 311.292L443.869 310.979C443.531 309.103 443.901 307.188 443.952 305.305 458.963 306.467 474.274 303.678 487.881 297.225 488.685 296.938 489.502 296.651 490.306 296.345 494.422 294.762 498.086 292.26 501.89 290.071M490.714 297.091C490.708 299.408 490.702 301.731 490.727 304.054 491.857 303.69 493.21 303.55 493.995 302.535 495.271 301.029 495.252 298.949 495.514 297.104 493.912 297.091 492.31 297.085 490.714 297.091Z" fill="#073E97" fill-rule="nonzero" fill-opacity="1" transform="matrix(1 0 0 1 132.682 23.357)"/><path d="M271.058 286.848C272.488 286.031 273.847 285.106 275.156 284.104 275.762 287.601 273.222 290.511 272.456 293.779 269.214 298.591 265.793 303.288 263.1 308.439 260.247 313.768 256.973 318.982 255.224 324.803 254.988 321.841 255.537 318.899 255.722 315.957 256.06 312.211 256.322 308.445 257.049 304.756 259.883 300.665 263.1 296.855 265.978 292.79 267.491 290.658 269.156 288.641 271.058 286.848Z" fill="#C3781C" fill-rule="nonzero" fill-opacity="1" transform="matrix(1 0 0 1 132.682 23.357)"/><path d="M335.876 290.773C336.661 289.458 337.452 288.143 338.256 286.835 338.665 288.399 339.188 289.93 339.935 291.366 332.027 296.97 329.104 306.62 324.031 314.425 322.703 314.406 321.382 314.393 320.061 314.4 320.227 311.509 320.565 308.528 321.873 305.911 322.85 304.68 324.413 304.124 325.735 303.339 325.952 302.274 326.169 301.208 326.398 300.148 327.171 299.555 327.949 298.961 328.728 298.368 328.715 296.874 328.702 295.368 329.021 293.907 330.534 294.053 331.836 295.126 333.368 295.119 335.123 293.147 333.534 290.754 332.723 288.769 333.77 289.439 334.823 290.103 335.876 290.773Z" fill="#E4162C" fill-rule="nonzero" fill-opacity="1" transform="matrix(1 0 0 1 132.682 23.357)"/><path d="M507.666 296.996C510.767 294.813 514.195 293.09 517.035 290.537 518.541 292.649 520.021 294.787 521.515 296.919 517.245 298.221 513.141 300.104 509.593 302.823 507.64 304.399 505.228 305.19 503.147 306.543 502.451 307.513 502.068 308.662 501.59 309.747 500.154 309.358 498.692 308.598 497.173 308.873 494.767 309.575 492.655 311.113 490.115 311.407 487.759 311.566 486.062 313.232 484.339 314.636 483.12 315.746 481.409 315.817 479.884 316.123 479.475 314.725 478.212 314.234 476.871 314.553 473.77 314.981 470.674 315.447 467.585 315.944 465.281 316.359 463.06 315.325 460.788 315.21 457.195 314.987 453.596 315.529 450.009 315.14 447.724 314.878 445.573 314.017 443.422 313.257 443.499 312.811 443.665 311.911 443.741 311.464L444.137 311.292C452.479 312.313 461.044 312.862 469.321 311.03 478.569 308.873 488.193 307.284 496.529 302.484 500.224 300.621 504.232 299.37 507.666 296.996Z" fill="#1D2D8E" fill-rule="nonzero" fill-opacity="1" transform="matrix(1 0 0 1 132.682 23.357)"/><path d="M324.031 314.425C329.104 306.62 332.027 296.97 339.935 291.366 340.388 291.641 341.301 292.19 341.754 292.458 333.087 302.969 326.354 315.376 324.12 328.932 323.897 329.832 323.667 330.725 323.45 331.632 322.269 334.861 321.81 338.269 321.835 341.697 321.235 343.752 320.693 345.826 320.201 347.906 320.016 347.549 319.646 346.828 319.461 346.47 319.531 345.539 319.614 344.62 319.697 343.701 319.174 343.739 318.14 343.822 317.623 343.86 317.202 338.742 318.791 333.827 319.761 328.868 320.61 324.394 322.62 320.252 323.533 315.791 323.654 315.453 323.903 314.77 324.031 314.425Z" fill="#D9234C" fill-rule="nonzero" fill-opacity="1" transform="matrix(1 0 0 1 132.682 23.357)"/><path d="M341.754 292.458C342.935 292.994 344.115 293.524 345.334 293.983 344.045 295.789 342.979 297.736 341.773 299.6 340.516 301.552 338.639 303.059 337.637 305.19 335.27 310.328 332.423 315.281 330.911 320.776 330.234 323.207 329.685 325.684 328.76 328.039 328.447 327.745 327.815 327.145 327.496 326.852 326.341 327.496 325.199 328.16 324.12 328.932 326.354 315.376 333.087 302.969 341.754 292.458Z" fill="#B61E2C" fill-rule="nonzero" fill-opacity="1" transform="matrix(1 0 0 1 132.682 23.357)"/><path d="M475.078 297.717C479.45 296.581 483.222 293.779 487.734 293.096 487.657 294.468 487.664 295.853 487.881 297.225 474.274 303.678 458.963 306.467 443.952 305.305 444.003 304.278 444.073 303.25 444.163 302.229 449.032 302.593 453.921 302.031 458.791 301.801 464.452 301.444 469.64 299.057 475.078 297.717Z" fill="#0D59AA" fill-rule="nonzero" fill-opacity="1" transform="matrix(1 0 0 1 132.682 23.357)"/><path d="M345.334 293.983C345.577 294.238 346.068 294.736 346.317 294.992 346.541 298.751 346.426 302.548 345.992 306.294 346.03 305.178 346.017 304.054 346.011 302.944 344.441 305.439 343.228 308.133 342.245 310.915 341.339 311.253 340.446 311.636 339.565 312.026 339.558 313.889 339.699 315.759 339.552 317.623 338.512 322.984 336.942 328.281 336.725 333.776 336.54 338.722 336.591 343.675 336.629 348.628 334.51 348.449 332.123 347.37 330.177 348.672 328.626 349.4 327.668 350.849 327.107 352.406 326.73 348.628 326.871 344.817 326.379 341.046 328.345 340.012 330.949 339.124 331.555 336.718 332.193 333.585 330.981 330.279 328.76 328.039 329.685 325.684 330.234 323.207 330.911 320.776 332.423 315.281 335.27 310.328 337.637 305.19 338.639 303.059 340.516 301.552 341.773 299.6 342.979 297.736 344.045 295.789 345.334 293.983Z" fill="#9D2720" fill-rule="nonzero" fill-opacity="1" transform="matrix(1 0 0 1 132.682 23.357)"/><path d="M509.593 302.823C513.141 300.104 517.245 298.221 521.515 296.919 523.027 299.051 524.521 301.201 526.11 303.288 522.632 304.744 519.332 306.614 516.492 309.109 512.963 312.134 508.572 313.755 504.347 315.517 501.047 316.851 497.888 318.638 494.359 319.289 491.946 319.729 489.566 320.265 487.249 321.056 482.813 321.088 478.633 322.812 474.21 322.933 466.137 323.807 458.018 323.316 449.919 323.494 447.59 323.552 445.273 323.348 442.976 323.022 443.11 319.767 443.397 316.519 443.422 313.257 445.573 314.017 447.724 314.878 450.009 315.14 453.596 315.529 457.195 314.987 460.788 315.21 463.06 315.325 465.281 316.359 467.585 315.944 470.674 315.447 473.77 314.981 476.871 314.553 476.75 315.906 475.984 318.414 478.059 318.587 479.501 318.708 479.52 317.112 479.884 316.123 481.409 315.817 483.12 315.746 484.339 314.636 486.062 313.232 487.759 311.566 490.115 311.407 492.655 311.113 494.767 309.575 497.173 308.873 498.692 308.598 500.154 309.358 501.59 309.747 502.068 308.662 502.451 307.513 503.147 306.543 505.228 305.19 507.64 304.399 509.593 302.823Z" fill="#103391" fill-rule="nonzero" fill-opacity="1" transform="matrix(1 0 0 1 132.682 23.357)"/><path d="M342.245 310.915C343.228 308.133 344.441 305.439 346.011 302.944 346.017 304.054 346.03 305.178 345.992 306.294 345.615 308.33 344.377 310.385 342.245 310.915Z" fill="#BF234A" fill-rule="nonzero" fill-opacity="0.97" transform="matrix(1 0 0 1 132.682 23.357)"/><path d="M516.492 309.109C519.332 306.614 522.632 304.744 526.11 303.288 526.55 304.239 527.291 305.286 526.512 306.301 525.172 307.801 523.244 308.592 521.751 309.926 519.007 312.294 516.422 315.351 516.084 319.116 515.707 322.62 515.937 326.296 517.271 329.589 518.356 331.855 521.119 332.072 523.315 332.321 523.04 333.885 523.219 335.799 521.904 336.948 518.534 338.078 514.443 336.029 511.476 338.544 508.789 342.162 509.765 346.981 509.58 351.18 506.089 351.429 502.611 351.774 499.158 352.316 499.701 348.876 499.86 345.315 499.209 341.875 499.024 340.58 497.831 339.718 496.58 339.622 494.978 339.041 493.937 340.58 492.757 341.352 490.517 342.877 487.689 342.577 485.143 342.96 480.031 343.592 474.88 343.19 469.755 343.388 467.617 343.496 465.505 343.139 463.424 342.73 460.654 342.188 457.75 343.037 455.057 342.054 452.938 341.371 451.323 339.641 449.192 339.022 447.233 338.888 445.28 339.52 443.333 339.188 442.433 338.391 442.063 337.184 441.482 336.169 442.344 334.185 442.593 332.034 442.599 329.889 445.848 330.598 449.096 331.6 452.466 331.325 456.519 331.064 460.386 332.43 464.305 333.221 464.369 332.193 464.445 331.172 464.522 330.151 468.951 331.491 473.655 331.53 478.103 330.234 478.135 329.953 478.205 329.398 478.237 329.117 479.584 329.092 480.943 329.079 482.303 329.072 482.296 328.179 482.29 327.298 482.29 326.418 482.705 326.143 483.541 325.594 483.962 325.326 483.643 324.394 483.33 323.469 483.024 322.55 484.441 322.078 485.845 321.567 487.249 321.056 489.566 320.265 491.946 319.729 494.359 319.289 497.888 318.638 501.047 316.851 504.347 315.517 508.572 313.755 512.963 312.134 516.492 309.109M503.275 320.699C503.977 320.699 504.685 320.705 505.393 320.712 504.685 320.003 503.977 319.295 503.281 318.593 503.275 319.295 503.268 319.991 503.275 320.699Z" fill="#262A8D" fill-rule="nonzero" fill-opacity="1" transform="matrix(1 0 0 1 132.682 23.357)"/><path d="M281.353 309.192C282.885 308.994 284.429 308.79 285.929 308.381 285.788 309.173 285.654 309.977 285.52 310.775 285.737 310.928 286.159 311.234 286.369 311.387 286.956 311.049 287.544 310.724 288.137 310.392 286.765 313.328 285.246 316.193 284.04 319.199 283.236 321.165 282.4 323.15 281.053 324.816 280.191 325.55 279.304 326.296 278.704 327.273 279.157 327.981 279.687 328.651 280.242 329.289 279.559 331.44 279.023 333.636 278.43 335.818 277.76 338.422 276.056 340.656 275.654 343.343 275.137 346.585 274.562 349.834 273.452 352.936 272.75 352.029 272.054 351.129 271.358 350.223 271.767 348.359 272.558 346.496 272.367 344.562 272.252 343.088 270.79 342.482 269.68 341.869 270.35 339.705 270.975 337.523 271.716 335.384 271.894 335.372 272.245 335.359 272.418 335.353 272.424 334.485 272.437 333.617 272.469 332.761 275.239 324.86 278.551 317.151 282.591 309.817 282.176 309.6 281.761 309.396 281.353 309.192Z" fill="#A93320" fill-rule="nonzero" fill-opacity="1" transform="matrix(1 0 0 1 132.682 23.357)"/><path d="M318.606 318.67C320.348 317.91 322.116 317.099 323.533 315.791 322.62 320.252 320.61 324.394 319.761 328.868 318.791 333.827 317.202 338.742 317.623 343.86 315.408 344.779 313.13 345.532 310.698 345.449 310.851 342.233 311.349 339.048 312.096 335.921 313.602 332.315 314.464 328.492 315.689 324.79 316.506 324.458 317.329 324.133 318.153 323.814 318.363 322.103 318.567 320.393 318.606 318.67Z" fill="#DE212B" fill-rule="nonzero" fill-opacity="1" transform="matrix(1 0 0 1 132.682 23.357)"/><path d="M257.183 335.487C260.036 329.258 262.302 322.754 265.627 316.755 266.616 318.433 268.576 318.823 270.369 318.982 269.91 321.727 269.699 324.516 268.978 327.215 268.416 329.526 265.582 330.26 264.919 332.506 263.623 335.94 264.019 339.667 263.355 343.222 262.583 345.934 261.3 348.5 259.411 350.606 258.97 347.032 257.56 341.805 261.415 339.616 259.513 338.812 258.173 337.242 257.183 335.487Z" fill="#D58610" fill-rule="nonzero" fill-opacity="1" transform="matrix(1 0 0 1 132.682 23.357)"/><path d="M336.725 333.776C336.942 328.281 338.512 322.984 339.552 317.623 340.056 325.792 342.699 333.885 341.397 342.118 340.931 344.294 340.114 346.375 339.424 348.493 338.486 348.551 337.561 348.602 336.629 348.628 336.591 343.675 336.54 338.722 336.725 333.776Z" fill="#D12360" fill-rule="nonzero" fill-opacity="1" transform="matrix(1 0 0 1 132.682 23.357)"/><path d="M474.21 322.933C478.633 322.812 482.813 321.088 487.249 321.056 485.845 321.567 484.441 322.078 483.024 322.55 483.33 323.469 483.643 324.394 483.962 325.326 483.541 325.594 482.705 326.143 482.29 326.418 482.271 325.467 482.245 324.522 482.226 323.584 479.788 324.331 478.307 326.622 478.237 329.117 478.205 329.398 478.135 329.953 478.103 330.234 473.655 331.53 468.951 331.491 464.522 330.151 464.445 331.172 464.369 332.193 464.305 333.221 460.386 332.43 456.519 331.064 452.466 331.325 449.096 331.6 445.848 330.598 442.599 329.889 442.701 327.598 442.842 325.313 442.976 323.022 445.273 323.348 447.59 323.552 449.919 323.494 458.018 323.316 466.137 323.807 474.21 322.933Z" fill="#1E2A8C" fill-rule="nonzero" fill-opacity="1" transform="matrix(1 0 0 1 132.682 23.357)"/><path d="M280.242 329.289C282.112 329.615 284.021 329.666 285.922 329.66 285.169 334.887 283.587 339.941 282.387 345.073 279.827 357.263 279.094 369.785 279.713 382.211L279.03 382.517C277.638 375.592 279.33 368.566 278.551 361.615 277.721 358.858 275.315 356.88 274.377 354.135 273.701 357.32 272.986 360.511 272.711 363.76 272.59 365.432 272.214 367.072 271.55 368.617 270.075 366.593 268.652 364.532 267.114 362.56 266.731 363.562 266.355 364.577 265.984 365.585L265.723 365.623C265.595 365.285 265.333 364.621 265.199 364.283 265.787 361.609 266.265 358.916 266.674 356.21 266.227 356.312 265.34 356.503 264.893 356.605 266.546 356.018 268.269 355.571 269.82 354.735 270.688 353.382 270.912 351.742 271.358 350.223 272.054 351.129 272.75 352.029 273.452 352.936 274.562 349.834 275.137 346.585 275.654 343.343 276.056 340.656 277.76 338.422 278.43 335.818 279.023 333.636 279.559 331.44 280.242 329.289M280.447 350.995C279.725 351.263 279.266 351.761 279.068 352.502 279.476 353.05 279.993 353.07 280.619 352.553 281.149 351.863 281.091 351.346 280.447 350.995Z" fill="#9D281D" fill-rule="nonzero" fill-opacity="1" transform="matrix(1 0 0 1 132.682 23.357)"/><path d="M285.922 329.66C289.26 329.57 292.63 329.577 295.936 328.983 295.949 331.568 296.542 334.363 295.228 336.744 294.417 338.276 294.079 339.98 293.907 341.69 293.039 341.684 292.171 341.684 291.309 341.684 291.309 343.771 291.303 345.858 291.303 347.945 291.998 347.351 292.694 346.751 293.383 346.151 293.6 351.193 292.534 356.184 292.796 361.226 293.128 367.915 291.986 374.929 294.762 381.266 296.172 383.953 294.564 386.94 295.228 389.754 295.317 390.954 296.625 391.375 297.404 392.09 298.38 389.94 298.329 386.806 301.067 386.04 303.601 385.568 305.771 387.546 307.679 388.944 309.856 390.469 311.541 392.671 313.902 393.928 315.166 392.007 314.457 389.525 313.959 387.463 313.149 384.936 312.683 382.306 312.709 379.651 315 380.724 316.672 382.721 318.95 383.825 319.365 386.659 319.697 389.55 320.839 392.205 321.631 394.024 321.969 395.983 322.071 397.956 322.492 397.445 322.914 396.928 323.348 396.43 323.794 397.777 324.222 399.124 324.669 400.477 325.135 401.913 325.69 403.329 326.315 404.708L326.373 404.848C327.081 407.388 327.809 409.929 328.824 412.367 326.079 411.371 323.577 409.52 320.584 409.392 321.459 413.962 323.833 418.015 325.084 422.457 318.778 420.146 313.481 415.743 307.099 413.643 308.196 417.53 308.088 421.87 310.488 425.284 306.32 424.072 300.531 423.05 299.453 418.047 297.519 409.814 295.189 401.657 294.13 393.245 293.849 389.652 291.073 387.195 288.737 384.776 290.033 383.838 292.222 383.04 291.788 381.03 291.181 379.837 290.25 378.866 289.407 377.852 289.943 377.201 290.479 376.55 291.022 375.911 289.758 374.597 288.494 373.027 286.529 372.937 286.395 369.887 285.75 366.855 286.018 363.792 286.191 360.805 286.803 357.837 286.733 354.837 286.867 352.712 285.048 351.334 283.976 349.738 282.891 348.423 282.655 346.687 282.387 345.073 283.587 339.941 285.169 334.887 285.922 329.66Z" fill="#CB2722" fill-rule="nonzero" fill-opacity="1" transform="matrix(1 0 0 1 132.682 23.357)"/><path d="M321.835 341.697C321.81 338.269 322.269 334.861 323.45 331.632 323.156 335.059 323.29 338.607 324.847 341.748 325.23 341.575 325.996 341.224 326.379 341.046 326.871 344.817 326.73 348.628 327.107 352.406 327.158 355.865 326.877 359.331 327.12 362.796 325.671 364.775 324.63 367.008 324.075 369.395 323.354 369.523 322.646 369.67 321.937 369.836 322.275 364.602 321.159 359.42 321.299 354.186 321.178 350.012 321.918 345.87 321.835 341.697Z" fill="#B0262A" fill-rule="nonzero" fill-opacity="1" transform="matrix(1 0 0 1 132.682 23.357)"/><path d="M441.482 336.169C442.063 337.184 442.433 338.391 443.333 339.188 445.28 339.52 447.233 338.888 449.192 339.022 451.323 339.641 452.938 341.371 455.057 342.054 457.75 343.037 460.654 342.188 463.424 342.73 465.505 343.139 467.617 343.496 469.755 343.388 474.88 343.19 480.031 343.592 485.143 342.96 487.689 342.577 490.517 342.877 492.757 341.352 493.957 342.845 495.073 344.575 494.901 346.592 495.239 350.319 489.732 349.713 489.259 353.178 474.759 353.606 460.271 351.448 446.339 347.517 443.927 346.694 441.572 345.673 439.076 345.098L438.923 344.696C439.453 341.767 440.678 339.029 441.482 336.169Z" fill="#2F258A" fill-rule="nonzero" fill-opacity="1" transform="matrix(1 0 0 1 132.682 23.357)"/><path d="M320.201 347.906C320.693 345.826 321.235 343.752 321.835 341.697 321.918 345.87 321.178 350.012 321.299 354.186 321.159 359.42 322.275 364.602 321.937 369.836 319.92 370.25 318.114 371.495 317.514 373.544 317.221 372.299 316.87 371.074 316.634 369.829 316.704 369.663 316.831 369.331 316.895 369.165 316.978 368.553 317.048 367.946 317.112 367.334 316.819 367.225 316.232 367.008 315.938 366.9 316.302 361.973 316.168 357.033 315.823 352.106 317.559 350.625 318.804 348.653 319.461 346.47 319.646 346.828 320.016 347.549 320.201 347.906Z" fill="#CB2344" fill-rule="nonzero" fill-opacity="1" transform="matrix(1 0 0 1 132.682 23.357)"/><path d="M279.713 382.211C279.094 369.785 279.827 357.263 282.387 345.073 282.655 346.687 282.891 348.423 283.976 349.738 285.048 351.334 286.867 352.712 286.733 354.837 286.803 357.837 286.191 360.805 286.018 363.792 285.75 366.855 286.395 369.887 286.529 372.937 288.494 373.027 289.758 374.597 291.022 375.911 290.479 376.55 289.943 377.201 289.407 377.852 290.25 378.866 291.181 379.837 291.788 381.03 292.222 383.04 290.033 383.838 288.737 384.776 291.073 387.195 293.849 389.652 294.13 393.245 295.189 401.657 297.519 409.814 299.453 418.047 300.531 423.05 306.32 424.072 310.488 425.284 308.088 421.87 308.196 417.53 307.099 413.643 313.481 415.743 318.778 420.146 325.084 422.457 323.833 418.015 321.459 413.962 320.584 409.392 323.577 409.52 326.079 411.371 328.824 412.367 330.004 414.836 330.623 417.657 332.455 419.764 332.704 420.019 333.195 420.517 333.444 420.766 333.853 424.174 335.736 427.097 336.98 430.23 337.905 432.534 339.571 434.411 340.739 436.581 341.588 437.883 340.937 439.427 340.758 440.831 339.31 439.944 337.918 438.904 336.291 438.38 334.823 437.742 333.285 439.765 334.434 440.94 336.406 443.646 338.499 446.301 339.744 449.447 337.612 449.69 335.423 450.207 333.291 449.741 331.019 448.822 329.111 447.207 327.33 445.573 325.447 445.669 323.565 445.956 321.682 445.828 319.652 444.897 319.276 442.382 318.063 440.71 316.232 438.189 313.506 435.681 310.168 435.904 308.298 435.885 306.435 435.853 304.578 435.732 302.593 430.964 300.372 426.235 299.58 421.085 297.557 420.491 295.579 419.693 293.945 418.321 295.54 415.953 295.4 413.005 295.572 410.28 293.881 410.171 292.324 410.663 291.194 411.971 290.684 411.958 289.65 411.945 289.139 411.939 289.024 411.46 288.794 410.497 288.68 410.012 289.094 408.556 289.969 407.063 289.535 405.512 288.45 401.593 286.133 398.153 284.895 394.292 283.682 390.82 284.876 387.004 283.376 383.589 282.674 386.097 282.323 388.682 281.831 391.241 281.257 389.282 280.766 387.297 280.325 385.312 280.67 384.215 280.81 383.06 281.008 381.936 280.683 382.006 280.038 382.14 279.713 382.211Z" fill="#BE1C24" fill-rule="nonzero" fill-opacity="1" transform="matrix(1 0 0 1 132.682 23.357)"/><path d="M438.661 345.162 439.076 345.098C441.572 345.673 443.927 346.694 446.339 347.517 460.271 351.448 474.759 353.606 489.259 353.178 489.189 353.938 489.144 354.697 489.112 355.469 486.738 356.484 484.3 357.346 481.773 357.888 484.722 358.003 487.715 357.965 490.568 358.82 490.083 358.877 489.106 358.999 488.621 359.062 488.621 362.285 488.857 365.502 489.081 368.725 479.584 368.642 470.323 366.408 461.05 364.672 454.54 362.783 447.552 361.73 441.91 357.722 439.153 356.401 435.993 356.082 433.377 354.41 436.804 352.508 437.219 348.417 438.661 345.162Z" fill="#562A8D" fill-rule="nonzero" fill-opacity="1" transform="matrix(1 0 0 1 132.682 23.357)"/><path d="M309.524 353.778C310.462 352.744 311.362 351.672 312.281 350.619 313.162 351.302 314.042 351.991 314.955 352.655 315.172 352.521 315.606 352.246 315.823 352.106 316.168 357.033 316.302 361.973 315.938 366.9 314.074 366.198 312.16 365.649 310.232 365.164 309.415 366.191 308.618 367.244 307.833 368.304 308.547 369.478 309.307 370.621 310.117 371.738 312.319 371.201 314.489 370.55 316.634 369.829 316.87 371.074 317.221 372.299 317.514 373.544 317.527 373.844 317.559 374.456 317.572 374.756 317.604 377.832 318.51 380.8 318.95 383.825 316.672 382.721 315 380.724 312.709 379.651 312.683 382.306 313.149 384.936 313.959 387.463 314.457 389.525 315.166 392.007 313.902 393.928 311.541 392.671 309.856 390.469 307.679 388.944 307.769 385.453 308.139 381.955 307.699 378.477 307.233 376.422 308.847 374.871 309.754 373.225 308.701 372.867 307.647 372.516 306.594 372.171 306.148 368.629 306.046 364.94 307.322 361.545 307.909 362.541 308.496 363.543 309.09 364.545 311.566 361.341 309.39 357.378 309.524 353.778Z" fill="#D82A25" fill-rule="nonzero" fill-opacity="1" transform="matrix(1 0 0 1 132.682 23.357)"/><path d="M499.158 352.316C502.611 351.774 506.089 351.429 509.58 351.18 509.593 354.933 509.542 358.686 509.606 362.439 506.191 362.445 502.79 362.617 499.388 362.822 499.981 362.26 500.575 361.698 501.181 361.149 501.188 360.613 501.207 359.541 501.213 358.999 497.665 358.871 494.091 359.267 490.568 358.82 487.715 357.965 484.722 358.003 481.773 357.888 484.3 357.346 486.738 356.484 489.112 355.469 491.838 355.105 494.691 355.418 497.326 354.467 498.296 354.148 498.667 353.108 499.158 352.316Z" fill="#4B288C" fill-rule="nonzero" fill-opacity="1" transform="matrix(1 0 0 1 132.682 23.357)"/><path d="M274.377 354.135C275.315 356.88 277.721 358.858 278.551 361.615 279.33 368.566 277.638 375.592 279.03 382.517 277.115 383.404 275.851 385.172 274.849 386.959 274.217 385.549 273.573 384.151 272.928 382.753 272.15 383.002 271.371 383.251 270.605 383.506 270.024 382.734 269.444 381.975 268.863 381.215 268.62 382.051 268.378 382.894 268.167 383.749 268.512 377.801 267.733 371.833 265.972 366.153L265.984 365.585C266.355 364.577 266.731 363.562 267.114 362.56 268.652 364.532 270.075 366.593 271.55 368.617 272.214 367.072 272.59 365.432 272.711 363.76 272.986 360.511 273.701 357.32 274.377 354.135M272.009 373.371C272.45 373.965 272.909 374.558 273.42 375.114 273.847 374.578 274.109 373.939 274.409 373.333 273.605 373.288 272.801 373.301 272.009 373.371Z" fill="#93221C" fill-rule="nonzero" fill-opacity="1" transform="matrix(1 0 0 1 132.682 23.357)"/><path d="M426.178 361.992C428.533 359.426 430.913 356.88 433.377 354.41 435.993 356.082 439.153 356.401 441.91 357.722 447.552 361.73 454.54 362.783 461.05 364.672 470.323 366.408 479.584 368.642 489.081 368.725 489.566 372.057 492.182 374.444 495.029 375.937 494.601 376.671 494.378 377.801 493.318 377.82 490.989 377.966 488.819 376.875 486.77 375.918 486.279 377.067 485.998 378.292 485.838 379.537 478.467 379.824 471.466 377.245 464.279 376.071 459.85 375.439 455.472 374.361 451.375 372.542 447.743 370.901 443.792 370.053 440.301 368.106 440.282 367.921 440.25 367.557 440.231 367.378 438.897 367.359 437.57 367.334 436.249 367.276 433.224 364.909 429.337 364.143 426.178 361.992Z" fill="#87218A" fill-rule="nonzero" fill-opacity="1" transform="matrix(1 0 0 1 132.682 23.357)"/><path d="M261.523 357.141C262.653 357.007 263.783 356.848 264.893 356.605 265.34 356.503 266.227 356.312 266.674 356.21 266.265 358.916 265.787 361.609 265.199 364.283 264.223 361.788 263.004 359.375 261.523 357.141Z" fill="#D88711" fill-rule="nonzero" fill-opacity="1" transform="matrix(1 0 0 1 132.682 23.357)"/><path d="M420.134 368.138C422.176 366.115 424.212 364.085 426.178 361.992 429.337 364.143 433.224 364.909 436.249 367.276 435.974 370.876 435.783 374.495 435.081 378.049 430.818 373.773 425.654 370.538 420.134 368.138Z" fill="#602289" fill-rule="nonzero" fill-opacity="1" transform="matrix(1 0 0 1 132.682 23.357)"/><path d="M499.388 362.822C502.79 362.617 506.191 362.445 509.606 362.439 509.561 363.485 509.638 364.558 509.421 365.598 508.725 366.823 507.614 367.729 506.593 368.668 503.434 368.285 500.237 368.24 497.09 368.719L496.994 368.731C497.122 366.542 498.341 364.672 499.388 362.822Z" fill="#5C288C" fill-rule="nonzero" fill-opacity="1" transform="matrix(1 0 0 1 132.682 23.357)"/><path d="M324.075 369.395C324.63 367.008 325.671 364.775 327.12 362.796 327.375 363.964 327.515 365.177 328.039 366.274 329.226 368.074 331.415 368.725 333.297 369.548 333.323 377.354 333.291 385.166 333.317 392.971 334.21 393.59 335.467 393.935 335.908 395.026 335.87 396.507 335.557 397.968 335.372 399.443 336.935 399.264 338.499 398.932 340.082 398.958 340.886 399.532 341.218 400.515 341.722 401.338 340.509 403.144 339.507 405.084 338.346 406.935 337.318 406.284 336.284 405.652 335.244 405.04 335.359 406.425 335.474 407.816 335.672 409.201 334.344 406.871 333.47 404.325 332.57 401.81 331.632 399.079 330.196 396.526 329.615 393.68 329.092 391.114 328.377 388.593 327.439 386.155 325.984 382.306 325.664 378.152 324.286 374.29 325.747 373.729 326.877 372.631 327.86 371.45 326.762 370.493 325.581 369.536 324.075 369.395Z" fill="#A22921" fill-rule="nonzero" fill-opacity="1" transform="matrix(1 0 0 1 132.682 23.357)"/><path d="M417.606 370.493C418.442 369.708 419.291 368.923 420.134 368.138 425.654 370.538 430.818 373.773 435.081 378.049 434.545 379.147 433.9 380.2 433.121 381.145 430.581 379.702 428.08 378.209 425.686 376.537 422.942 374.584 419.591 373.365 417.606 370.493Z" fill="#6F2089" fill-rule="nonzero" fill-opacity="1" transform="matrix(1 0 0 1 132.682 23.357)"/><path d="M440.301 368.106C443.792 370.053 447.743 370.901 451.375 372.542 455.472 374.361 459.85 375.439 464.279 376.071 471.466 377.245 478.467 379.824 485.838 379.537 486.279 380.628 486.458 382.345 487.919 382.53 489.419 382.887 491.627 382.026 492.482 383.749 492.763 384.827 493.101 386.18 492.495 387.202 491.053 387.808 489.464 388.114 488.238 389.135 488.787 390.297 489.329 391.465 489.827 392.665 493.069 392.505 495.756 390.259 499.062 390.374 500.441 393.341 501.864 396.283 503.211 399.27 507.595 396.086 513.122 396.73 518.209 396.73 517.73 397.547 517.258 398.364 516.792 399.187 520.832 400.145 524.974 399.551 529.071 399.628 535.026 399.889 540.987 399.468 546.948 399.692 545.946 401.549 545.155 403.617 543.597 405.091 541.561 406.029 539.238 406.208 537.273 407.337 528.912 406.278 520.481 407.842 512.114 406.929 506.778 405.321 501.168 406.91 495.833 405.416 494.895 405.187 493.969 404.931 493.044 404.714 494.754 404.082 497.441 403.597 497.499 401.3 497.677 399.813 495.839 399.698 494.908 399.181 494.876 398.319 494.844 397.458 494.812 396.603 494.18 397.522 493.561 398.447 493.057 399.449 490.038 398.996 487.013 398.415 484.173 397.254 479.233 395.275 473.77 395.026 468.938 392.729 468.632 391.592 468.326 390.463 468.026 389.34 466.162 389.365 464.394 389.908 462.824 390.897 460.463 389.091 457.852 387.591 455.791 385.427 453.034 382.396 448.011 384.266 445.209 381.311 443.844 379.907 442.178 378.873 440.34 378.228 440.295 374.852 440.397 371.476 440.301 368.106Z" fill="#5B258A" fill-rule="nonzero" fill-opacity="1" transform="matrix(1 0 0 1 132.682 23.357)"/><path d="M497.09 368.719C500.237 368.24 503.434 368.285 506.593 368.668 503.715 369.995 499.726 370.972 497.09 368.719Z" fill="#7D2793" fill-rule="nonzero" fill-opacity="1" transform="matrix(1 0 0 1 132.682 23.357)"/><path d="M410.58 375.752C412.769 373.799 415.36 372.376 417.606 370.493 419.591 373.365 422.942 374.584 425.686 376.537 428.08 378.209 430.581 379.702 433.121 381.145 431.89 381.566 430.639 381.911 429.388 382.236 429.771 384.84 430.052 387.482 429.873 390.118 427.326 389.346 424.837 388.255 422.865 386.423 418.87 382.728 413.477 380.564 410.58 375.752Z" fill="#912189" fill-rule="nonzero" fill-opacity="1" transform="matrix(1 0 0 1 132.682 23.357)"/><path d="M317.572 374.756C319.506 374.667 321.446 374.552 323.386 374.373 323.75 376.971 324.369 379.524 325.071 382.057 325.964 385.332 326.092 388.778 327.222 391.995 328.249 395.186 329.775 398.198 330.706 401.427 331.102 402.442 330.426 403.406 330.145 404.357 329.238 403.151 328.46 401.836 327.368 400.789 326.583 400.272 325.55 400.566 324.669 400.477 324.222 399.124 323.794 397.777 323.348 396.43 322.914 396.928 322.492 397.445 322.071 397.956 321.969 395.983 321.631 394.024 320.839 392.205 319.697 389.55 319.365 386.659 318.95 383.825 318.51 380.8 317.604 377.832 317.572 374.756Z" fill="#BF163B" fill-rule="nonzero" fill-opacity="1" transform="matrix(1 0 0 1 132.682 23.357)"/><path d="M323.386 374.373 324.286 374.29C325.664 378.152 325.984 382.306 327.439 386.155 328.377 388.593 329.092 391.114 329.615 393.68 330.196 396.526 331.632 399.079 332.57 401.81 332.736 404.051 332.819 406.38 333.923 408.403 335.078 411.007 337.401 413.515 336.501 416.572 335.442 416.03 334.408 415.443 333.297 415.034 331.849 416.202 332.423 418.174 332.455 419.764 330.623 417.657 330.004 414.836 328.824 412.367 327.809 409.929 327.081 407.388 326.373 404.848 326.609 405.116 327.075 405.659 327.305 405.927 327.822 405.48 328.339 405.04 328.862 404.606 328.141 404.268 327.432 403.942 326.717 403.617 326.615 403.891 326.418 404.44 326.315 404.708 325.69 403.329 325.135 401.913 324.669 400.477 325.55 400.566 326.583 400.272 327.368 400.789 328.46 401.836 329.238 403.151 330.145 404.357 330.426 403.406 331.102 402.442 330.706 401.427 329.775 398.198 328.249 395.186 327.222 391.995 326.092 388.778 325.964 385.332 325.071 382.057 324.369 379.524 323.75 376.971 323.386 374.373Z" fill="#B22135" fill-rule="nonzero" fill-opacity="1" transform="matrix(1 0 0 1 132.682 23.357)"/><path d="M406.144 380.602C407.631 378.994 409.124 377.392 410.58 375.752 413.477 380.564 418.87 382.728 422.865 386.423 424.837 388.255 427.326 389.346 429.873 390.118 429.579 392.224 428.609 394.133 427.454 395.888 422.642 393.029 418.066 389.825 413.503 386.595 413.286 385.102 414.249 382.587 412.36 382.006 411.499 382.192 410.924 382.894 410.337 383.481 408.952 382.498 407.554 381.541 406.144 380.602Z" fill="#B31185" fill-rule="nonzero" fill-opacity="1" transform="matrix(1 0 0 1 132.682 23.357)"/><path d="M440.34 378.228C442.178 378.873 443.844 379.907 445.209 381.311 448.011 384.266 453.034 382.396 455.791 385.427 457.852 387.591 460.463 389.091 462.824 390.897 464.394 389.908 466.162 389.365 468.026 389.34 468.326 390.463 468.632 391.592 468.938 392.729 473.77 395.026 479.233 395.275 484.173 397.254 487.013 398.415 490.038 398.996 493.057 399.449 492.974 399.966 492.808 400.993 492.725 401.51 493.452 401.51 494.186 401.517 494.92 401.53 494.92 400.942 494.908 399.768 494.908 399.181 495.839 399.698 497.677 399.813 497.499 401.3 497.441 403.597 494.754 404.082 493.044 404.714 489.272 404.357 486.521 407.286 483.592 409.144 485.392 409.82 487.172 410.56 488.978 411.237 485.647 411.033 482.437 410.075 479.163 409.552 474.548 408.773 469.947 407.803 465.575 406.112 462.103 404.772 458.586 403.54 454.993 402.583 452.172 401.849 449.773 400.126 447.079 399.085 444.201 397.975 441.335 396.832 438.534 395.549 440.608 390.029 440.238 384.017 440.34 378.228M450.302 390.444C450.296 392.052 450.302 393.66 450.347 395.269 451.93 394.12 452.855 392.384 453.028 390.437 452.115 390.431 451.209 390.437 450.302 390.444Z" fill="#742088" fill-rule="nonzero" fill-opacity="1" transform="matrix(1 0 0 1 132.682 23.357)"/><path d="M268.863 381.215C269.444 381.975 270.024 382.734 270.605 383.506 271.371 383.251 272.15 383.002 272.928 382.753 273.573 384.151 274.217 385.549 274.849 386.959 274.454 388.127 274.026 389.32 274.039 390.578 274.396 391.695 275.328 392.492 276.036 393.392 277.192 391.624 278.226 389.78 279.125 387.872 279.247 392.614 280.21 397.285 281.155 401.925 279.311 403.974 276.553 404.319 273.943 404.063 273.324 402.455 272.839 400.796 272.15 399.219 270.101 396.922 267.867 394.771 265.576 392.716 265.455 391.082 266.597 389.927 267.669 388.886 267.816 387.17 267.835 385.434 268.167 383.749 268.378 382.894 268.62 382.051 268.863 381.215Z" fill="#881D1D" fill-rule="nonzero" fill-opacity="1" transform="matrix(1 0 0 1 132.682 23.357)"/><path d="M400.381 381.777C402.321 381.489 404.248 381.132 406.144 380.602 407.554 381.541 408.952 382.498 410.337 383.481 410.528 384.489 410.445 385.708 411.237 386.506 411.977 386.621 412.737 386.646 413.503 386.595 418.066 389.825 422.642 393.029 427.454 395.888 427.026 396.558 426.612 397.228 426.203 397.911 420.778 397.975 416.043 394.937 412.175 391.42 408.008 388.504 403.163 386.276 400.381 381.777Z" fill="#D31787" fill-rule="nonzero" fill-opacity="1" transform="matrix(1 0 0 1 132.682 23.357)"/><path d="M391.892 384.91C394.675 383.736 397.196 381.643 400.381 381.777 403.163 386.276 408.008 388.504 412.175 391.42 416.043 394.937 420.778 397.975 426.203 397.911 425.431 399.181 424.639 400.451 423.861 401.734 421.251 400.859 418.838 399.379 416.119 398.875 413.298 398.868 410.624 400.011 407.81 400.043 404.823 400.087 401.925 399.27 398.977 398.977 398.945 399.404 398.881 400.253 398.849 400.674 400.942 402.181 402.946 403.84 405.225 405.084 404.114 405.704 402.417 405.576 401.715 406.75 401.37 408.467 401.542 410.241 401.51 411.984 396.507 408.92 392.684 404.414 388.529 400.355 385.536 397.419 382.428 394.535 380.188 390.954L379.932 390.571C382.064 389.774 384.381 389.71 386.531 389.001 388.287 387.604 389.748 385.778 391.892 384.91Z" fill="#B71A88" fill-rule="nonzero" fill-opacity="1" transform="matrix(1 0 0 1 132.682 23.357)"/><path d="M281.831 391.241C282.323 388.682 282.674 386.097 283.376 383.589 284.876 387.004 283.682 390.82 284.895 394.292 286.133 398.153 288.45 401.593 289.535 405.512 289.969 407.063 289.094 408.556 288.68 410.012 288.003 407.593 288.105 404.829 286.503 402.774 285.182 401.204 282.929 401.376 281.155 401.925 280.21 397.285 279.247 392.614 279.125 387.872 279.515 387.01 279.93 386.161 280.325 385.312 280.766 387.297 281.257 389.282 281.831 391.241Z" fill="#B02523" fill-rule="nonzero" fill-opacity="1" transform="matrix(1 0 0 1 132.682 23.357)"/><path d="M377.852 398.166C378.42 395.703 378.917 393.175 380.188 390.954 382.428 394.535 385.536 397.419 388.529 400.355 392.684 404.414 396.507 408.92 401.51 411.984 401.523 414.894 401.523 417.804 401.51 420.721 398.932 419.272 396.673 417.364 394.726 415.156 391.439 411.639 387.259 409.016 384.47 405.027 382.377 402.666 381.036 399.264 377.852 398.166Z" fill="#A81578" fill-rule="nonzero" fill-opacity="1" transform="matrix(1 0 0 1 132.682 23.357)"/><path d="M545.595 395.9C552.366 394.63 559.138 393.297 565.999 392.614 567.479 393.22 568.079 394.873 568.909 396.13 560.727 396.411 552.628 399.009 544.427 397.866 544.81 397.202 545.199 396.545 545.595 395.9Z" fill="#3F267C" fill-rule="nonzero" fill-opacity="1" transform="matrix(1 0 0 1 132.682 23.357)"/><path d="M355.973 395.473C360.23 394.241 365.457 396.858 365.968 401.504 363.683 401.523 361.398 401.53 359.113 401.485 358.15 399.436 357.084 397.439 355.973 395.473Z" fill="#C9216B" fill-rule="nonzero" fill-opacity="1" transform="matrix(1 0 0 1 132.682 23.357)"/><path d="M351.295 398.728C352.591 397.298 354.155 396.143 355.973 395.473 357.084 397.439 358.15 399.436 359.113 401.485 359.082 401.651 359.018 401.983 358.986 402.149 359.145 402.276 359.458 402.538 359.611 402.666 363.504 406.24 365.879 411.084 369.446 414.945 370.493 416.253 372.299 416.202 373.812 416.489 373.754 417.262 373.71 418.034 373.671 418.819 376.805 418.825 379.932 418.857 383.066 418.749 382.74 418.998 382.089 419.502 381.77 419.751 387.15 426.165 393.533 431.622 399.743 437.2 394.898 437.327 390.367 435.228 385.568 434.896 385.657 434.187 385.753 433.485 385.855 432.783 383.864 431.449 381.84 430.141 379.6 429.267 379.077 429.069 378.037 428.673 377.513 428.482 377.45 428.29 377.316 427.901 377.252 427.709 377.137 427.378 376.907 426.714 376.792 426.382 375.139 426.695 373.958 427.811 374.131 429.598 371.15 426.918 368.559 423.855 365.834 420.931 361.928 415.277 357.582 409.903 354.269 403.859 353.299 402.136 352.297 400.432 351.295 398.728Z" fill="#B61357" fill-rule="nonzero" fill-opacity="1" transform="matrix(1 0 0 1 132.682 23.357)"/><path d="M438.534 395.549C441.335 396.832 444.201 397.975 447.079 399.085 449.773 400.126 452.172 401.849 454.993 402.583 458.586 403.54 462.103 404.772 465.575 406.112 469.947 407.803 474.548 408.773 479.163 409.552 479.667 409.884 480.177 410.235 480.694 410.592 480.745 411.454 480.809 412.315 480.879 413.184 478.716 414.147 476.38 414.639 474.012 414.479 472.066 414.3 470.63 415.826 468.996 416.604 466.481 418.123 463.418 417.772 460.648 417.396 457.674 416.426 454.674 415.532 451.815 414.275 448.177 412.571 443.978 413.196 440.295 411.62 440.321 411.179 440.372 410.305 440.397 409.865 436.166 410.056 431.794 410.216 427.799 411.76 424.984 412.896 424.199 416.087 423.944 418.806 426.49 418.813 429.082 419.049 431.603 418.545 436.536 420.153 440.767 423.216 445.273 425.693 447.284 426.675 449.396 427.435 451.496 428.22 452.996 429.241 454.534 430.205 456.148 431.041 452.766 432.151 449.511 433.677 446.007 434.398 443.224 434.979 440.487 435.757 437.87 436.868 437.155 436.517 436.427 436.191 435.713 435.879 436.268 433.536 436.81 431.188 437.627 428.922 433.383 429.101 429.139 428.469 425.01 427.531 423.835 427.18 422.45 426.944 421.697 425.89 419.527 422.98 418.653 419.304 416.4 416.458 414.466 414.454 411.824 413.369 409.667 411.671 408.582 410.158 408.55 408.199 407.778 406.559 407.299 405.569 406.093 405.499 405.225 405.084 402.946 403.84 400.942 402.181 398.849 400.674 398.881 400.253 398.945 399.404 398.977 398.977 401.925 399.27 404.823 400.087 407.81 400.043 410.624 400.011 413.298 398.868 416.119 398.875 418.838 399.379 421.251 400.859 423.861 401.734 423.165 402.87 422.667 404.121 422.304 405.404 423.95 406.138 425.546 406.974 427.122 407.861 428.488 406.82 429.841 405.761 431.117 404.612 433.428 405.244 435.738 405.965 437.806 407.203 440.933 409.035 444.373 410.267 447.845 411.269 450.334 412.003 452.549 410.184 454.642 409.112 451.809 407.963 449.262 405.863 446.122 405.678 446.116 405.263 446.103 404.434 446.096 404.025 445.318 404.031 444.539 404.057 443.773 404.102 441.916 401.67 439.216 400.189 436.427 399.079 437.232 397.968 437.921 396.775 438.534 395.549M409.252 401.619C407.969 402.423 407.956 404.887 409.348 405.608 410.771 406.035 412.322 404.88 411.984 403.336 412.047 401.9 410.445 401.198 409.252 401.619Z" fill="#A91B88" fill-rule="nonzero" fill-opacity="1" transform="matrix(1 0 0 1 132.682 23.357)"/><path d="M538.013 396.749C540.566 396.794 543.087 396.315 545.595 395.9 545.199 396.545 544.81 397.202 544.427 397.866 552.628 399.009 560.727 396.411 568.909 396.13 570.052 398.632 570.99 401.223 571.679 403.897 565.131 404.651 558.583 405.384 552.054 406.278 547.12 406.476 542.161 406.54 537.273 407.337 539.238 406.208 541.561 406.029 543.597 405.091 545.155 403.617 545.946 401.549 546.948 399.692 540.987 399.468 535.026 399.889 529.071 399.628 524.974 399.551 520.832 400.145 516.792 399.187 517.258 398.364 517.73 397.547 518.209 396.73 524.808 396.737 531.407 396.724 538.013 396.749Z" fill="#4A2787" fill-rule="nonzero" fill-opacity="1" transform="matrix(1 0 0 1 132.682 23.357)"/><path d="M377.852 398.166C381.036 399.264 382.377 402.666 384.47 405.027 387.259 409.016 391.439 411.639 394.726 415.156 396.673 417.364 398.932 419.272 401.51 420.721 401.523 423.497 401.51 426.273 401.523 429.05 398.058 427.626 395.192 425.118 392.671 422.412 391.318 420.976 390.144 419.196 388.223 418.5 386.551 417.887 384.783 417.651 383.047 417.332 381.719 414.147 378.592 411.677 375.024 411.964 373.008 409.092 370.423 406.686 368.374 403.846 369.574 403.91 370.799 404.197 372.012 403.987 373.907 403.061 375.484 401.274 377.769 401.402 377.775 400.317 377.801 399.238 377.852 398.166Z" fill="#D6177D" fill-rule="nonzero" fill-opacity="1" transform="matrix(1 0 0 1 132.682 23.357)"/><path d="M342.641 409.048C346.075 406.086 348.321 402.098 351.295 398.728 352.297 400.432 353.299 402.136 354.269 403.859 357.582 409.903 361.928 415.277 365.834 420.931 366.51 422.24 367.155 423.574 367.94 424.831 366.881 424.129 365.783 423.491 364.692 422.853 363.932 423.318 363.179 423.797 362.426 424.276 362.356 424.046 362.209 423.58 362.139 423.35 362.802 422.667 363.479 421.991 364.149 421.314 363.122 420.044 362.075 418.787 360.983 417.574 359.477 421.072 359.886 425.418 362.49 428.297 366.057 432.407 368.693 437.212 372.248 441.329 371.259 441.342 370.276 441.361 369.299 441.393 370.327 442.912 371.878 443.85 373.671 444.195 373.678 443.627 373.69 442.484 373.697 441.91 375.216 443.633 376.767 445.331 378.152 447.175 378.011 448.439 377.552 449.996 378.739 450.928 379.766 452.345 381.84 453.059 382.3 454.815 380.417 455.644 378.158 456.608 376.231 455.376 370.014 453.276 364.309 449.696 357.792 448.509 356.018 444.558 354.263 440.461 351.212 437.302 350.306 435.291 349.31 433.319 347.989 431.551 350.912 432.809 353.995 433.632 357.109 434.277 356.146 431.277 354.001 428.941 352.048 426.554 349.808 423.861 348.979 420.376 347.3 417.364 345.775 414.581 344.198 411.818 342.641 409.048M363.192 439.261C363.185 440.659 363.179 442.069 363.179 443.473 363.887 442.771 364.596 442.063 365.311 441.374 364.602 440.665 363.894 439.957 363.192 439.261Z" fill="#851B1D" fill-rule="nonzero" fill-opacity="1" transform="matrix(1 0 0 1 132.682 23.357)"/><path d="M431.117 404.612C433 402.883 434.832 401.083 436.427 399.079 439.216 400.189 441.916 401.67 443.773 404.102 443.339 404.172 442.471 404.306 442.037 404.376 443.276 405.116 444.66 405.608 446.122 405.678 449.262 405.863 451.809 407.963 454.642 409.112 452.549 410.184 450.334 412.003 447.845 411.269 444.373 410.267 440.933 409.035 437.806 407.203 435.738 405.965 433.428 405.244 431.117 404.612Z" fill="#BB1687" fill-rule="nonzero" fill-opacity="1" transform="matrix(1 0 0 1 132.682 23.357)"/><path d="M332.57 401.81C333.47 404.325 334.344 406.871 335.672 409.201 337.376 412.175 338.607 415.373 339.846 418.557 341.339 422.501 344.594 425.456 346.03 429.433 347.166 432.4 348.838 435.157 351.212 437.302 354.263 440.461 356.018 444.558 357.792 448.509 354.793 448.152 351.774 448.19 348.762 448.139 347.555 446.25 346.183 444.469 344.875 442.65 343.273 440.531 343.292 437.678 341.85 435.483 340.586 433.587 339.041 431.877 338.091 429.796 336.565 426.778 335.825 423.28 333.444 420.766 333.195 420.517 332.704 420.019 332.455 419.764 332.423 418.174 331.849 416.202 333.297 415.034 334.408 415.443 335.442 416.03 336.501 416.572 337.401 413.515 335.078 411.007 333.923 408.403 332.819 406.38 332.736 404.051 332.57 401.81Z" fill="#A0282B" fill-rule="nonzero" fill-opacity="1" transform="matrix(1 0 0 1 132.682 23.357)"/><path d="M359.611 402.666C362.566 402.729 365.47 403.361 368.374 403.846 370.423 406.686 373.008 409.092 375.024 411.964 374.354 413.388 373.901 414.907 373.812 416.489 372.299 416.202 370.493 416.253 369.446 414.945 365.879 411.084 363.504 406.24 359.611 402.666Z" fill="#C11C67" fill-rule="nonzero" fill-opacity="1" transform="matrix(1 0 0 1 132.682 23.357)"/><path d="M552.054 406.278C558.583 405.384 565.131 404.651 571.679 403.897L571.462 404.599C566.184 405.71 560.721 405.55 555.468 406.82 552.788 407.452 550.024 407.433 547.299 407.357 541.6 406.923 535.594 409.067 532.486 414.083 527.329 413.222 521.949 414.377 516.945 412.641 518.566 410.918 520.124 408.761 522.606 408.288 527.45 407.357 532.454 408.556 537.273 407.337 542.161 406.54 547.12 406.476 552.054 406.278Z" fill="#48286C" fill-rule="nonzero" fill-opacity="1" transform="matrix(1 0 0 1 132.682 23.357)"/><path d="M483.592 409.144C486.521 407.286 489.272 404.357 493.044 404.714 493.969 404.931 494.895 405.187 495.833 405.416 501.168 406.91 506.778 405.321 512.114 406.929 508.846 407.491 505.381 407.593 502.419 409.227 501.175 409.89 499.975 410.631 498.762 411.352 499.069 411.728 499.381 412.105 499.701 412.494 498.558 412.418 497.422 412.392 496.292 412.341 493.848 412.009 491.41 411.645 488.978 411.237 487.172 410.56 485.392 409.82 483.592 409.144Z" fill="#60227D" fill-rule="nonzero" fill-opacity="1" transform="matrix(1 0 0 1 132.682 23.357)"/><path d="M555.468 406.82C560.721 405.55 566.184 405.71 571.462 404.599 571.526 405.595 570.543 406.023 569.981 406.642 568.13 408.25 566.746 410.286 565.156 412.13 565.399 412.749 565.654 413.375 565.922 414 562.016 414.122 558.136 414.556 554.236 414.588 553.024 414.409 551.824 414.217 550.63 414.007 552.909 412.73 553.126 410.101 553.222 407.752 551.25 407.746 549.29 407.746 547.325 407.752L547.299 407.357C550.024 407.433 552.788 407.452 555.468 406.82Z" fill="#321F57" fill-rule="nonzero" fill-opacity="1" transform="matrix(1 0 0 1 132.682 23.357)"/><path d="M335.244 405.04C336.284 405.652 337.318 406.284 338.346 406.935 338.129 407.925 338.078 408.939 338.148 409.96 339.667 409.801 341.186 409.533 342.641 409.048 344.198 411.818 345.775 414.581 347.3 417.364 348.979 420.376 349.808 423.861 352.048 426.554 354.001 428.941 356.146 431.277 357.109 434.277 353.995 433.632 350.912 432.809 347.989 431.551 349.31 433.319 350.306 435.291 351.212 437.302 348.838 435.157 347.166 432.4 346.03 429.433 344.594 425.456 341.339 422.501 339.846 418.557 338.607 415.373 337.376 412.175 335.672 409.201 335.474 407.816 335.359 406.425 335.244 405.04Z" fill="#95251D" fill-rule="nonzero" fill-opacity="1" transform="matrix(1 0 0 1 132.682 23.357)"/><path d="M502.419 409.227C505.381 407.593 508.846 407.491 512.114 406.929 520.481 407.842 528.912 406.278 537.273 407.337 532.454 408.556 527.45 407.357 522.606 408.288 520.124 408.761 518.566 410.918 516.945 412.641 521.949 414.377 527.329 413.222 532.486 414.083 536.985 414.69 541.612 413.751 546.035 415.034 540.279 415.213 534.484 415.487 528.752 414.766 524.821 414.307 520.851 414.741 516.913 414.358 511.176 413.764 505.438 413.126 499.701 412.494 499.381 412.105 499.069 411.728 498.762 411.352 499.975 410.631 501.175 409.89 502.419 409.227Z" fill="#552476" fill-rule="nonzero" fill-opacity="1" transform="matrix(1 0 0 1 132.682 23.357)"/><path d="M532.486 414.083C535.594 409.067 541.6 406.923 547.299 407.357L547.325 407.752C547.407 410.114 547.471 413.828 550.63 414.007 551.824 414.217 553.024 414.409 554.236 414.588 551.518 414.996 548.773 415.29 546.035 415.034 541.612 413.751 536.985 414.69 532.486 414.083Z" fill="#402562" fill-rule="nonzero" fill-opacity="1" transform="matrix(1 0 0 1 132.682 23.357)"/><path d="M479.163 409.552C482.437 410.075 485.647 411.033 488.978 411.237 491.41 411.645 493.848 412.009 496.292 412.341 501.59 414.205 507.257 414.217 512.759 415.022 510.206 417.262 507.295 419.234 504.034 420.255 500.243 420.37 496.554 419.113 492.776 418.902 492.789 417.964 492.808 417.032 492.833 416.107 492.15 416.975 491.455 417.836 490.772 418.717 487.957 418.219 485.379 419.591 482.909 420.714 482.009 419.929 481.026 419.247 480.056 418.57 478.397 419.783 476.769 421.053 475.41 422.604 471.485 420.836 467.4 419.349 463.131 418.666 462.294 418.245 461.478 417.798 460.648 417.396 463.418 417.772 466.481 418.123 468.996 416.604 470.63 415.826 472.066 414.3 474.012 414.479 476.38 414.639 478.716 414.147 480.879 413.184 480.809 412.315 480.745 411.454 480.694 410.592 480.177 410.235 479.667 409.884 479.163 409.552Z" fill="#9E1B88" fill-rule="nonzero" fill-opacity="1" transform="matrix(1 0 0 1 132.682 23.357)"/><path d="M440.295 411.62C443.978 413.196 448.177 412.571 451.815 414.275 454.674 415.532 457.674 416.426 460.648 417.396 461.478 417.798 462.294 418.245 463.131 418.666 460.003 419.438 456.742 419.847 453.813 421.27 451.298 422.489 448.49 422.789 445.784 423.325 445.611 424.11 445.439 424.901 445.273 425.693 440.767 423.216 436.536 420.153 431.603 418.545 433.198 415.698 436.453 414.753 439.542 415.073 439.88 413.937 440.155 412.788 440.295 411.62M445.088 420.185C445.126 421.136 444.903 422.412 446.211 422.604 447.086 422.361 447.079 421.455 447.271 420.753 446.543 420.549 445.816 420.357 445.088 420.185Z" fill="#971186" fill-rule="nonzero" fill-opacity="1" transform="matrix(1 0 0 1 132.682 23.357)"/><path d="M496.292 412.341C497.422 412.392 498.558 412.418 499.701 412.494 505.438 413.126 511.176 413.764 516.913 414.358 520.851 414.741 524.821 414.307 528.752 414.766 534.484 415.487 540.279 415.213 546.035 415.034 548.773 415.29 551.518 414.996 554.236 414.588 558.136 414.556 562.016 414.122 565.922 414 567.645 416.726 569.528 419.355 571.162 422.138 567.601 424.097 563.414 423.299 559.534 423.567 557.772 422.457 555.672 422.47 553.675 422.419 556.298 420.172 559.125 418.168 562.438 417.077 560.753 416.438 558.978 415.953 557.166 416.011 552.188 416.087 547.203 415.953 542.232 416.189 532.409 415.883 522.555 415.915 512.759 415.022 507.257 414.217 501.59 414.205 496.292 412.341Z" fill="#7D2385" fill-rule="nonzero" fill-opacity="1" transform="matrix(1 0 0 1 132.682 23.357)"/><path d="M512.759 415.022C522.555 415.915 532.409 415.883 542.232 416.189 543.304 416.419 544.363 416.694 545.435 416.968 543.348 418.506 541.542 420.37 540.042 422.476 539.628 422.514 538.798 422.591 538.383 422.629 534.228 423.063 530.016 423.248 525.887 422.489 521.866 421.78 517.788 422.699 513.754 422.176 510.461 421.889 507.104 421.034 503.811 421.729 500.505 423.025 497.735 425.839 494.008 425.941 490.67 425.916 487.383 425.239 484.058 425.118 483.873 423.606 483.496 422.119 482.909 420.714 485.379 419.591 487.957 418.219 490.772 418.717 491.436 418.768 492.099 418.832 492.776 418.902 496.554 419.113 500.243 420.37 504.034 420.255 507.295 419.234 510.206 417.262 512.759 415.022Z" fill="#901086" fill-rule="nonzero" fill-opacity="1" transform="matrix(1 0 0 1 132.682 23.357)"/><path d="M542.232 416.189C547.203 415.953 552.188 416.087 557.166 416.011 558.978 415.953 560.753 416.438 562.438 417.077 559.125 418.168 556.298 420.172 553.675 422.419 552.169 422.872 550.637 423.229 549.175 423.803 546.565 423.025 543.814 422.948 541.178 423.631 540.891 423.344 540.323 422.763 540.042 422.476 541.542 420.37 543.348 418.506 545.435 416.968 544.363 416.694 543.304 416.419 542.232 416.189Z" fill="#881886" fill-rule="nonzero" fill-opacity="1" transform="matrix(1 0 0 1 132.682 23.357)"/><path d="M383.047 417.332C384.783 417.651 386.551 417.887 388.223 418.5 390.144 419.196 391.318 420.976 392.671 422.412 395.192 425.118 398.058 427.626 401.523 429.05 403.068 429.726 403.648 431.411 404.28 432.847 402.806 433.875 401.159 434.621 399.455 435.17 400.138 435.828 400.821 436.491 401.517 437.155 401.07 437.168 400.189 437.193 399.743 437.2 393.533 431.622 387.15 426.165 381.77 419.751 382.089 419.502 382.74 418.998 383.066 418.749 383.06 418.398 383.053 417.683 383.047 417.332Z" fill="#C71F77" fill-rule="nonzero" fill-opacity="1" transform="matrix(1 0 0 1 132.682 23.357)"/><path d="M288.054 419.527C290.052 419.304 292.043 418.991 293.945 418.321 295.579 419.693 297.557 420.491 299.58 421.085 300.372 426.235 302.593 430.964 304.578 435.732 302.312 435.291 299.785 435.508 297.749 434.283 295.292 432.036 296.989 428.297 295.662 425.546 294.455 422.221 290.677 421.378 288.054 419.527Z" fill="#B12423" fill-rule="nonzero" fill-opacity="1" transform="matrix(1 0 0 1 132.682 23.357)"/><path d="M362.49 428.297C359.886 425.418 359.477 421.072 360.983 417.574 362.075 418.787 363.122 420.044 364.149 421.314 363.479 421.991 362.802 422.667 362.139 423.35 362.209 423.58 362.356 424.046 362.426 424.276 363.179 423.797 363.932 423.318 364.692 422.853 365.783 423.491 366.881 424.129 367.94 424.831 372.637 429.675 376.601 435.208 381.63 439.74 381.815 439.076 382.013 438.419 382.223 437.768 382.064 440.321 382.077 442.88 382.083 445.445 380.609 445.624 379.217 446.122 378.184 447.22L378.152 447.175C376.767 445.331 375.216 443.633 373.697 441.91 373.665 441.763 373.601 441.463 373.563 441.316 373.237 441.316 372.58 441.329 372.248 441.329 368.693 437.212 366.057 432.407 362.49 428.297Z" fill="#6D190F" fill-rule="nonzero" fill-opacity="1" transform="matrix(1 0 0 1 132.682 23.357)"/><path d="M453.813 421.27C456.742 419.847 460.003 419.438 463.131 418.666 467.4 419.349 471.485 420.836 475.41 422.604 474.727 423.491 474.095 424.416 473.495 425.367 469.596 426.886 465.46 427.55 461.388 428.418 461.375 428.52 461.363 428.731 461.35 428.839 461.248 431.13 461.28 433.428 461.439 435.719 460.214 433.121 458.101 431.105 455.925 429.305 454.687 428.29 452.964 428.507 451.496 428.22 449.396 427.435 447.284 426.675 445.273 425.693 445.439 424.901 445.611 424.11 445.784 423.325 448.49 422.789 451.298 422.489 453.813 421.27Z" fill="#8D1784" fill-rule="nonzero" fill-opacity="1" transform="matrix(1 0 0 1 132.682 23.357)"/><path d="M333.444 420.766C335.825 423.28 336.565 426.778 338.091 429.796 339.041 431.877 340.586 433.587 341.85 435.483 343.292 437.678 343.273 440.531 344.875 442.65 346.183 444.469 347.555 446.25 348.762 448.139 345.724 448.343 342.737 448.943 339.744 449.447 338.499 446.301 336.406 443.646 334.434 440.94 333.285 439.765 334.823 437.742 336.291 438.38 337.918 438.904 339.31 439.944 340.758 440.831 340.937 439.427 341.588 437.883 340.739 436.581 339.571 434.411 337.905 432.534 336.98 430.23 335.736 427.097 333.853 424.174 333.444 420.766Z" fill="#B02424" fill-rule="nonzero" fill-opacity="1" transform="matrix(1 0 0 1 132.682 23.357)"/><path d="M365.834 420.931C368.559 423.855 371.15 426.918 374.131 429.598 374.865 430.339 375.828 430.76 376.748 431.245 376.952 430.064 377.15 428.896 377.252 427.709 377.316 427.901 377.45 428.29 377.513 428.482 377.245 429.847 376.639 431.277 377.035 432.681 377.271 433.932 378.681 433.517 379.396 432.981 380.347 431.941 379.747 430.466 379.6 429.267 381.84 430.141 383.864 431.449 385.855 432.783 385.753 433.485 385.657 434.187 385.568 434.896 383.953 435.094 382.46 436.038 382.223 437.768 382.013 438.419 381.815 439.076 381.63 439.74 376.601 435.208 372.637 429.675 367.94 424.831 367.155 423.574 366.51 422.24 365.834 420.931Z" fill="#AC1C4B" fill-rule="nonzero" fill-opacity="1" transform="matrix(1 0 0 1 132.682 23.357)"/><path d="M503.811 421.729C507.104 421.034 510.461 421.889 513.754 422.176 517.788 422.699 521.866 421.78 525.887 422.489 530.016 423.248 534.228 423.063 538.383 422.629 538.102 423.925 537.356 426.382 539.277 426.612 541.051 427.007 540.955 424.742 541.178 423.631 543.814 422.948 546.565 423.025 549.175 423.803 548.084 424.703 546.878 425.488 545.971 426.58 545.231 428.545 544.804 430.613 544.255 432.643 544.165 432.483 543.974 432.164 543.878 432.005L543.782 431.564C539.551 432.343 535.243 432.056 531.005 431.526 528.076 431.066 525.178 432.017 522.581 433.294 520.238 434.449 518.949 437.244 516.23 437.691 513.499 438.195 510.716 437.729 507.978 437.532 505.547 437.378 503.549 435.145 501.022 435.885 498.169 436.223 495.827 437.953 493.778 439.829 492.648 440.614 491.327 441.074 490.083 441.623 487.964 440.544 485.762 439.638 483.515 438.859 484.702 434.372 484.511 429.694 484.058 425.118 487.383 425.239 490.67 425.916 494.008 425.941 497.735 425.839 500.505 423.025 503.811 421.729Z" fill="#7B2680" fill-rule="nonzero" fill-opacity="1" transform="matrix(1 0 0 1 132.682 23.357)"/><path d="M571.162 422.138 571.417 422.023C571.545 425.061 571.481 428.15 570.773 431.124 570.032 434.443 564.895 434.072 563.548 431.43 562.093 428.871 561.04 426.101 559.534 423.567 563.414 423.299 567.601 424.097 571.162 422.138Z" fill="#612174" fill-rule="nonzero" fill-opacity="1" transform="matrix(1 0 0 1 132.682 23.357)"/><path d="M461.388 428.418C465.46 427.55 469.596 426.886 473.495 425.367 473.17 429.79 475.582 433.76 477.069 437.78 473.01 437.098 469.519 434.73 465.524 433.843 465.473 431.954 464.841 430.147 463.603 428.718 463.041 428.75 461.912 428.807 461.35 428.839 461.363 428.731 461.375 428.52 461.388 428.418Z" fill="#842682" fill-rule="nonzero" fill-opacity="1" transform="matrix(1 0 0 1 132.682 23.357)"/><path d="M451.496 428.22C452.964 428.507 454.687 428.29 455.925 429.305 458.101 431.105 460.214 433.121 461.439 435.719 462.952 435.477 464.471 435.03 465.524 433.843 469.519 434.73 473.01 437.098 477.069 437.78 478.02 439.906 479.137 441.974 480.535 443.844 478.014 445.739 474.753 445.579 471.798 446.096 471.785 445.146 471.778 444.207 471.772 443.269 468.262 443.339 466.717 446.575 466.417 449.626 463.596 448.943 460.846 448.018 458.018 447.36 457.316 446.792 456.621 446.224 455.88 445.72 453.053 443.633 449.524 442.969 446.479 441.31 443.62 439.797 440.697 438.425 437.87 436.868 440.487 435.757 443.224 434.979 446.007 434.398 449.511 433.677 452.766 432.151 456.148 431.041 454.534 430.205 452.996 429.241 451.496 428.22Z" fill="#971385" fill-rule="nonzero" fill-opacity="1" transform="matrix(1 0 0 1 132.682 23.357)"/><path d="M522.581 433.294C525.178 432.017 528.076 431.066 531.005 431.526 535.243 432.056 539.551 432.343 543.782 431.564L543.878 432.005C543.406 435.298 544.74 438.757 543.431 441.916 539.513 441.208 535.524 440.008 531.516 440.704 529.582 440.921 528.637 442.854 527.029 443.671 525.427 444.207 523.723 444.297 522.077 444.597 522.67 446.53 524.17 447.909 525.899 448.873 519.69 448.19 513.716 445.962 507.442 445.797L507.372 445.797C506.198 443.563 504.557 441.482 502.228 440.404 499.618 439.044 496.56 439.133 493.778 439.829 495.827 437.953 498.169 436.223 501.022 435.885 503.549 435.145 505.547 437.378 507.978 437.532 510.716 437.729 513.499 438.195 516.23 437.691 518.949 437.244 520.238 434.449 522.581 433.294Z" fill="#6D1F74" fill-rule="nonzero" fill-opacity="1" transform="matrix(1 0 0 1 132.682 23.357)"/><path d="M435.713 435.879C436.427 436.191 437.155 436.517 437.87 436.868 440.697 438.425 443.62 439.797 446.479 441.31 449.524 442.969 453.053 443.633 455.88 445.72 454.113 445.611 452.338 445.426 450.577 445.611 448.579 446.524 446.639 449.02 444.252 447.756 441.138 446.269 438.757 443.607 436.644 440.952 435.355 439.555 435.591 437.608 435.713 435.879Z" fill="#961F62" fill-rule="nonzero" fill-opacity="1" transform="matrix(1 0 0 1 132.682 23.357)"/><path d="M483.515 438.859C485.762 439.638 487.964 440.544 490.083 441.623 488.155 442.912 486.221 444.877 486.54 447.405 486.84 451.177 491.11 452.638 492.297 455.983 492.84 457.489 492.75 459.123 492.814 460.705 489.732 458.172 485.992 456.685 482.111 455.931 477.159 454.036 472.027 452.53 467.419 449.849 468.875 449.83 470.342 449.792 471.804 449.766 471.804 448.541 471.798 447.315 471.798 446.096 474.753 445.579 478.014 445.739 480.535 443.844 481.065 444.482 481.601 445.082 482.169 445.72 482.596 443.429 483.03 441.138 483.515 438.859M481.479 448.4C480.56 449.141 480.586 450.564 481.001 451.585 481.499 452.83 483.579 452.555 483.764 451.215 484.415 449.747 483.247 447.443 481.479 448.4Z" fill="#8A257B" fill-rule="nonzero" fill-opacity="1" transform="matrix(1 0 0 1 132.682 23.357)"/><path d="M531.516 440.704C535.524 440.008 539.513 441.208 543.431 441.916 540.757 444.814 537.987 447.609 535.224 450.417L535.16 450.411C532.103 449.734 529.001 449.281 525.899 448.873 524.17 447.909 522.67 446.53 522.077 444.597 523.723 444.297 525.427 444.207 527.029 443.671 528.637 442.854 529.582 440.921 531.516 440.704Z" fill="#5D2370" fill-rule="nonzero" fill-opacity="1" transform="matrix(1 0 0 1 132.682 23.357)"/><path d="M499.024 445.579C500.422 445.554 501.826 445.548 503.236 445.541 503.543 448.898 504.423 452.16 505.515 455.338 504.085 455.836 502.662 456.346 501.245 456.87 501.654 452.881 499.011 449.517 499.024 445.579Z" fill="#85257F" fill-rule="nonzero" fill-opacity="1" transform="matrix(1 0 0 1 132.682 23.357)"/><path d="M507.442 445.797C513.716 445.962 519.69 448.19 525.899 448.873 529.001 449.281 532.103 449.734 535.16 450.411 534.094 451.285 533.252 453.021 531.624 452.721 528.676 452.134 526.11 450.411 523.206 449.651 523.213 452.408 523.761 455.108 524.457 457.763 519.9 457.655 515.433 456.716 511.023 455.631 510.091 452.262 508.751 449.032 507.442 445.797Z" fill="#81287B" fill-rule="nonzero" fill-opacity="1" transform="matrix(1 0 0 1 132.682 23.357)"/><path d="M458.018 447.36C460.846 448.018 463.596 448.943 466.417 449.626 466.673 449.683 467.17 449.792 467.419 449.849 472.027 452.53 477.159 454.036 482.111 455.931 477.222 455.472 472.321 454.942 467.407 455.057 467.662 456.334 468.932 456.78 469.921 457.387 471.951 458.497 473.974 459.633 475.997 460.776 475.589 461.669 475.18 462.569 474.797 463.475L474.765 463.462C469.417 461.203 464.267 458.51 458.937 456.212 459.505 453.232 459.11 450.175 458.018 447.36Z" fill="#8A1A57" fill-rule="nonzero" fill-opacity="1" transform="matrix(1 0 0 1 132.682 23.357)"/><path d="M501.245 456.87C502.662 456.346 504.085 455.836 505.515 455.338 506.715 457.623 509.076 458.957 511.674 458.752 511.457 457.706 511.24 456.665 511.023 455.631 515.433 456.716 519.9 457.655 524.457 457.763L524.546 457.77C524.732 460.393 525.127 463.111 524.368 465.683 524.068 466.871 522.74 467.33 521.649 467.081 519.083 466.315 516.518 465.53 513.863 465.179 508.891 464.464 504.136 462.824 499.324 461.465 500.071 459.978 500.741 458.459 501.245 456.87Z" fill="#7A236C" fill-rule="nonzero" fill-opacity="1" transform="matrix(1 0 0 1 132.682 23.357)"/><path d="M458.937 456.212C464.267 458.51 469.417 461.203 474.765 463.462 473.872 464.93 472.857 466.673 470.981 466.934 467.968 467.292 464.93 466.743 461.956 466.309 460.105 465.983 457.814 465.32 457.253 463.277 456.704 460.788 457.897 458.401 458.937 456.212Z" fill="#B4126D" fill-rule="nonzero" fill-opacity="1" transform="matrix(1 0 0 1 132.682 23.357)"/><path d="M499.324 461.465C504.136 462.824 508.891 464.464 513.863 465.179 516.518 465.53 519.083 466.315 521.649 467.081 519 467.904 516.313 468.9 514.386 470.987 512.969 472.008 511.801 474.063 509.81 473.636 509.625 473.202 509.255 472.327 509.07 471.893 506.313 470.451 503.389 469.372 500.415 468.485 498.641 466.647 499.145 463.788 499.324 461.465Z" fill="#7A0E45" fill-rule="nonzero" fill-opacity="1" transform="matrix(1 0 0 1 132.682 23.357)"/></g></g></g></g></svg>